<svg xmlns="http://www.w3.org/2000/svg" xmlns:xlink="http://www.w3.org/1999/xlink" width="500" zoomAndPan="magnify" viewBox="0 0 375 187.499995" height="250" preserveAspectRatio="xMidYMid meet" version="1.0"><defs><clipPath id="4276cdf041"><path d="M 0.5 0 L 126 0 L 126 125 L 0.5 125 Z M 0.5 0 " clip-rule="nonzero"/></clipPath><clipPath id="729b76e03c"><path d="M 0.507812 62.308594 L 62.84375 -0.0234375 L 125.175781 62.308594 L 62.84375 124.644531 Z M 0.507812 62.308594 " clip-rule="nonzero"/></clipPath><clipPath id="e0c153f84b"><path d="M 62 62 L 188 62 L 188 187 L 62 187 Z M 62 62 " clip-rule="nonzero"/></clipPath><clipPath id="d96b059a84"><path d="M 62.84375 124.644531 L 125.175781 62.308594 L 187.511719 124.644531 L 125.175781 186.976562 Z M 62.84375 124.644531 " clip-rule="nonzero"/></clipPath><clipPath id="aac36fb99c"><path d="M 187 62 L 313 62 L 313 187 L 187 187 Z M 187 62 " clip-rule="nonzero"/></clipPath><clipPath id="fd60fcf3ef"><path d="M 187.511719 124.644531 L 249.84375 62.308594 L 312.175781 124.644531 L 249.84375 186.976562 Z M 187.511719 124.644531 " clip-rule="nonzero"/></clipPath><clipPath id="1926891ced"><path d="M 125 0 L 250 0 L 250 125 L 125 125 Z M 125 0 " clip-rule="nonzero"/></clipPath><clipPath id="74df2864fb"><path d="M 125.175781 62.308594 L 187.511719 -0.0234375 L 249.84375 62.308594 L 187.511719 124.644531 Z M 125.175781 62.308594 " clip-rule="nonzero"/></clipPath><clipPath id="d407ef9131"><path d="M 249 0 L 374.5 0 L 374.5 125 L 249 125 Z M 249 0 " clip-rule="nonzero"/></clipPath><clipPath id="2f8cdc9243"><path d="M 249.84375 62.308594 L 312.175781 -0.0234375 L 374.511719 62.308594 L 312.175781 124.644531 Z M 249.84375 62.308594 " clip-rule="nonzero"/></clipPath></defs><g clip-path="url(#4276cdf041)"><g clip-path="url(#729b76e03c)"><path fill="#dd0000" d="M 0.507812 62.308594 L 62.84375 -0.0234375 L 125.175781 62.308594 L 62.84375 124.644531 Z M 0.507812 62.308594 " fill-opacity="1" fill-rule="nonzero"/></g></g><g clip-path="url(#e0c153f84b)"><g clip-path="url(#d96b059a84)"><path fill="#f15900" d="M 62.84375 124.644531 L 125.175781 62.308594 L 187.511719 124.644531 L 125.175781 186.976562 Z M 62.84375 124.644531 " fill-opacity="1" fill-rule="nonzero"/></g></g><g clip-path="url(#aac36fb99c)"><g clip-path="url(#fd60fcf3ef)"><path fill="#f9a700" d="M 187.511719 124.644531 L 249.84375 62.308594 L 312.175781 124.644531 L 249.84375 186.976562 Z M 187.511719 124.644531 " fill-opacity="1" fill-rule="nonzero"/></g></g><g clip-path="url(#1926891ced)"><g clip-path="url(#74df2864fb)"><path fill="#f78402" d="M 125.175781 62.308594 L 187.511719 -0.0234375 L 249.84375 62.308594 L 187.511719 124.644531 Z M 125.175781 62.308594 " fill-opacity="1" fill-rule="nonzero"/></g></g><g clip-path="url(#d407ef9131)"><g clip-path="url(#2f8cdc9243)"><path fill="#fdda00" d="M 249.84375 62.308594 L 312.175781 -0.0234375 L 374.511719 62.308594 L 312.175781 124.644531 Z M 249.84375 62.308594 " fill-opacity="1" fill-rule="nonzero"/></g></g></svg>