<?xml version="1.0" encoding="UTF-8"?>
<svg width="100pt" height="100pt" version="1.1" viewBox="0 0 100 100" xmlns="http://www.w3.org/2000/svg">
 <g>
  <path d="m50 19c-8.2227 0-16.105 3.2656-21.922 9.0781-5.8125 5.8164-9.0781 13.699-9.0781 21.922s3.2656 16.105 9.0781 21.922c5.8164 5.8125 13.699 9.0781 21.922 9.0781s16.105-3.2656 21.922-9.0781c5.8125-5.8164 9.0781-13.699 9.0781-21.922s-3.2656-16.105-9.0781-21.922c-5.8164-5.8125-13.699-9.0781-21.922-9.0781zm0 56c-6.6289 0-12.988-2.6328-17.676-7.3242-4.6914-4.6875-7.3242-11.047-7.3242-17.676s2.6328-12.988 7.3242-17.676c4.6875-4.6914 11.047-7.3242 17.676-7.3242s12.988 2.6328 17.676 7.3242c4.6914 4.6875 7.3242 11.047 7.3242 17.676s-2.6328 12.988-7.3242 17.676c-4.6875 4.6914-11.047 7.3242-17.676 7.3242z"/>
  <path d="m47 49h6v16h-6z"/>
  <path d="m53 38c0 4-6 4-6 0s6-4 6 0"/>
 </g>
</svg>
