<svg width="3889" height="1340" viewBox="0 0 3889 1340" fill="none" xmlns="http://www.w3.org/2000/svg">
<path d="M1571.17 509.885V762.655H1728.6V816.005H1513.44V509.885H1571.16H1571.17Z" fill="black"/>
<path d="M1986.61 758.275H1826.55L1800.31 815.995H1737.77L1875.09 509.875H1938.06L2075.37 815.995H2012.4L1986.6 758.275H1986.61ZM1906.58 574.165L1849.73 704.485H1963.43L1906.58 574.165Z" fill="black"/>
<path d="M2315.03 584.665C2294.48 564.985 2263.87 554.055 2237.19 554.055C2171.59 554.055 2131.8 603.905 2131.8 666.885C2131.8 717.175 2161.1 769.215 2237.19 769.215C2261.24 769.215 2282.23 763.965 2306.29 744.725V690.495H2228.01V638.895H2359.2V767.905C2329.03 802.455 2290.98 823.005 2237.19 823.005C2122.18 823.005 2075.39 747.355 2075.39 666.885C2075.39 580.735 2129.18 501.145 2237.19 501.145C2278.3 501.145 2319.4 516.885 2350.89 547.935L2315.03 584.665Z" fill="black"/>
<path d="M2673.63 816.005H2604.97L2515.76 713.675H2460.22V816.005H2402.49V509.455C2451.03 509.455 2499.57 509.895 2548.12 509.895C2620.28 510.335 2658.32 558.435 2658.32 611.355C2658.32 653.335 2639.08 695.755 2580.92 707.565L2673.63 812.085V816.025V816.005ZM2460.22 563.675V661.635H2548.12C2584.85 661.635 2600.6 637.145 2600.6 612.655C2600.6 588.165 2584.42 563.675 2548.12 563.675H2460.22Z" fill="black"/>
<path d="M2914.58 758.275H2754.52L2728.28 815.995H2665.74L2803.06 509.875H2866.03L3003.34 815.995H2940.37L2914.57 758.275H2914.58ZM2834.55 574.165L2777.7 704.485H2891.4L2834.55 574.165Z" fill="black"/>
<path d="M3230.76 509.445H3288.48V815.995H3252.62V816.435L3091.69 609.585V815.995H3033.96V509.875H3080.75L3230.75 699.665V509.435L3230.76 509.445Z" fill="black"/>
<path d="M3568.8 584.665C3548.25 564.985 3517.64 554.055 3490.96 554.055C3425.36 554.055 3385.57 603.905 3385.57 666.885C3385.57 717.175 3414.87 769.215 3490.96 769.215C3515.01 769.215 3536 763.965 3560.06 744.725V690.495H3481.78V638.895H3612.97V767.905C3582.8 802.455 3544.75 823.005 3490.96 823.005C3375.95 823.005 3329.16 747.355 3329.16 666.885C3329.16 580.735 3382.95 501.145 3490.96 501.145C3532.07 501.145 3573.17 516.885 3604.66 547.935L3568.8 584.665Z" fill="black"/>
<path d="M3888.47 816.005H3659.32V509.885H3888.47V565.865H3716.61V636.275H3882.35V690.065H3716.61V759.155H3888.47V816.005Z" fill="black"/>
<path d="M1092.97 916.925C1212.31 683.312 1112.76 393.654 870.612 269.955C628.466 146.255 335.424 235.358 216.084 468.971C96.7441 702.583 196.298 992.242 438.444 1115.94C680.59 1239.64 973.632 1150.54 1092.97 916.925Z" stroke="#E4B517" stroke-width="75" stroke-miterlimit="10"/>
<path d="M686.644 1107.61C957.103 1107.61 1176.35 893.799 1176.35 630.055C1176.35 366.311 957.103 152.505 686.644 152.505C416.184 152.505 196.934 366.311 196.934 630.055C196.934 893.799 416.184 1107.61 686.644 1107.61Z" stroke="#EB6E80" stroke-width="75" stroke-miterlimit="10"/>
<path d="M1223.78 870.947C1343.12 637.334 1243.57 347.676 1001.42 223.977C759.278 100.278 466.235 189.38 346.896 422.993C227.556 656.606 327.11 946.264 569.255 1069.96C811.401 1193.66 1104.44 1104.56 1223.78 870.947Z" stroke="#028E97" stroke-width="75" stroke-miterlimit="10"/>
<path d="M1172.78 916.922C1292.12 683.309 1192.57 393.651 950.42 269.952C708.274 146.252 415.232 235.355 295.892 468.968C176.552 702.58 276.106 992.239 518.251 1115.94C760.397 1239.64 1053.44 1150.53 1172.78 916.922Z" stroke="#E54D42" stroke-width="75" stroke-miterlimit="10"/>
</svg>
