<svg width="129" height="28" viewBox="0 0 129 28" fill="none" xmlns="http://www.w3.org/2000/svg">
<g clip-path="url(#clip0_1_101)">
<mask id="mask0_1_101" style="mask-type:luminance" maskUnits="userSpaceOnUse" x="0" y="0" width="28" height="28">
<path d="M28 0H0V28H28V0Z" fill="white"/>
</mask>
<g mask="url(#mask0_1_101)">
<path opacity="0.5" fill-rule="evenodd" clip-rule="evenodd" d="M18.7646 26.2068C17.5651 27.1407 16.1969 27.9049 14.4852 28.0084C14.1772 28.027 13.8683 28.027 13.5603 28.0084C11.8485 27.9049 10.4803 27.1407 9.28083 26.2068C8.16678 25.3394 6.94384 24.1163 5.55248 22.7248C5.51391 22.6862 5.47522 22.6475 5.4364 22.6087C5.39757 22.5699 5.35888 22.5312 5.32031 22.4926C3.92876 21.1013 2.70566 19.8783 1.83826 18.7643C0.904361 17.5648 0.14022 16.1966 0.0366792 14.4849C0.0180471 14.1769 0.0180471 13.868 0.0366792 13.56C0.14022 11.8483 0.904361 10.4801 1.83826 9.28059C2.70566 8.16655 3.92876 6.94362 5.32031 5.55226C5.35888 5.5137 5.39757 5.47501 5.4364 5.43618C5.47522 5.39736 5.51391 5.35866 5.55248 5.32009C6.94384 3.92855 8.16678 2.70546 9.28083 1.83806C10.4803 0.904172 11.8485 0.140036 13.5603 0.0364958C13.8683 0.017864 14.1772 0.0178638 14.4852 0.0364962C16.1969 0.140036 17.5651 0.904172 18.7646 1.83806C19.8786 2.70546 21.1016 3.92856 22.493 5.3201C22.5315 5.35867 22.5702 5.39736 22.609 5.43618C22.6478 5.475 22.6865 5.51369 22.7251 5.55225C24.1167 6.94361 25.3398 8.16654 26.2072 9.28059C27.1411 10.4801 27.9052 11.8483 28.0087 13.56C28.0274 13.868 28.0274 14.1769 28.0087 14.4849C27.9052 16.1966 27.1411 17.5648 26.2072 18.7643C25.3398 19.8783 24.1167 21.1013 22.7251 22.4926C22.6865 22.5312 22.6478 22.5699 22.609 22.6087C22.5702 22.6475 22.5315 22.6862 22.493 22.7248C21.1016 24.1163 19.8786 25.3394 18.7646 26.2068ZM2.83376 14.3157C2.94498 16.1544 4.43594 17.6454 7.41785 20.6273C10.3998 23.6092 11.8907 25.1001 13.7295 25.2113C13.9248 25.2231 14.1207 25.2231 14.316 25.2113C16.1547 25.1001 17.6457 23.6092 20.6276 20.6273C23.6095 17.6454 25.1004 16.1544 25.2117 14.3157C25.2235 14.1204 25.2235 13.9245 25.2117 13.7292C25.1004 11.8905 23.6095 10.3995 20.6276 7.41762C17.6457 4.43573 16.1547 2.94478 14.316 2.83356C14.1207 2.82175 13.9248 2.82175 13.7295 2.83356C11.8907 2.94478 10.3998 4.43573 7.41785 7.41763C4.43594 10.3995 2.94498 11.8905 2.83376 13.7292C2.82195 13.9245 2.82195 14.1204 2.83376 14.3157Z" fill="black"/>
<path d="M6.5498 14.0225C6.5498 13.7173 6.76578 13.4562 7.06266 13.3852C8.56844 13.0251 9.75424 12.4615 10.7499 11.5795C11.0428 11.32 11.3198 11.043 11.5793 10.75C12.4613 9.75446 13.0249 8.56868 13.385 7.0629C13.456 6.76603 13.7171 6.55005 14.0224 6.55005C14.3276 6.55005 14.5887 6.76603 14.6597 7.0629C15.0198 8.56868 15.5834 9.75446 16.4654 10.75C16.7249 11.043 17.0019 11.32 17.2949 11.5795C18.2905 12.4615 19.4763 13.0251 20.9821 13.3852C21.2789 13.4562 21.4949 13.7173 21.4949 14.0225C21.4949 14.3278 21.2789 14.5889 20.9821 14.6599C19.4763 15.02 18.2905 15.5836 17.2949 16.4656C17.0019 16.7251 16.7249 17.0021 16.4654 17.295C15.5834 18.2906 15.0198 19.4764 14.6597 20.9822C14.5887 21.279 14.3276 21.495 14.0224 21.495C13.7171 21.495 13.456 21.279 13.385 20.9822C13.0249 19.4764 12.4613 18.2906 11.5793 17.295C11.3198 17.0021 11.0428 16.7251 10.7499 16.4656C9.75424 15.5836 8.56844 15.02 7.06266 14.6599C6.76578 14.5889 6.5498 14.3278 6.5498 14.0225Z" fill="black"/>
</g>
<path d="M53.9502 7.85532C53.9502 8.77234 54.6391 9.42189 55.6725 9.42189C56.7058 9.42189 57.3756 8.77234 57.3756 7.85532C57.3756 6.9192 56.7058 6.30786 55.6725 6.30786C54.6391 6.30786 53.9502 6.9192 53.9502 7.85532Z" fill="black"/>
<path d="M54.2947 10.4344V19.9867H57.0502V10.4344H54.2947Z" fill="black"/>
<path d="M46.4142 19.9867H43.6587V6.61353H46.4142V11.9628C46.8544 11.0458 47.8494 10.1479 49.2655 10.1479C51.5809 10.1479 52.6334 11.638 52.6334 14.2362V19.9867H49.8778V14.5419C49.8778 13.1664 49.2655 12.4595 48.213 12.4595C47.0266 12.4595 46.4142 13.4147 46.4142 14.7902V19.9867Z" fill="black"/>
<path d="M38.4556 19.9867H35.7V10.4344H38.4556L37.9704 12.626C37.9415 12.7563 38.0406 12.8798 38.174 12.8798C38.2715 12.8798 38.3555 12.812 38.3811 12.718C38.7917 11.2085 40.0314 10.2816 41.3068 10.2816C41.8044 10.2816 42.1104 10.3198 42.3209 10.358V12.8989C42.1296 12.8798 41.4982 12.8416 41.1346 12.8416C39.929 12.8416 38.4556 13.3956 38.4556 16.4141V19.9867Z" fill="black"/>
<path d="M61.7319 19.9867H58.9763V10.4344H61.7319L61.6936 12.0392C62.1338 11.1031 63.1671 10.1479 64.5831 10.1479C66.8986 10.1479 67.9511 11.638 67.9511 14.2362V19.9867H65.1955V14.5419C65.1955 13.1664 64.5831 12.4595 63.5307 12.4595C62.3443 12.4595 61.7319 13.4147 61.7319 14.7902V19.9867Z" fill="black"/>
<path fill-rule="evenodd" clip-rule="evenodd" d="M69.3855 15.2297C69.3855 18.1526 71.2034 20.2923 74.246 20.2923C76.9442 20.2923 78.3794 18.8213 78.8003 17.1974L76.2361 16.7198C76.0639 17.3885 75.3942 18.1908 74.2269 18.1908C73.0213 18.1908 72.0262 17.121 72.0071 15.841H78.8195C78.8769 15.6117 78.9152 15.287 78.9152 14.8476C78.9152 12.0774 76.8485 10.1288 74.2651 10.1288C71.567 10.1288 69.3855 12.2876 69.3855 15.2297ZM76.2361 14.198H72.1028C72.1602 13.0135 73.1361 12.1729 74.2269 12.1729C75.2985 12.1729 76.2744 12.9753 76.2361 14.198Z" fill="black"/>
<path d="M84.3716 20.2923C82.2093 20.2923 80.2 19.5473 79.7981 17.3311L82.3623 16.9491C82.6685 17.9425 83.3574 18.3628 84.3333 18.3628C85.2327 18.3628 85.7111 17.9425 85.7111 17.3885C85.7111 16.9108 85.3475 16.5861 84.3716 16.395L83.4722 16.204C81.5204 15.8028 80.2957 14.9049 80.2957 13.3192C80.2957 11.4279 81.9414 10.1288 84.3333 10.1288C86.5914 10.1288 88.2562 11.1795 88.4858 13.1473L85.9599 13.5294C85.8451 12.5932 85.1945 12.0583 84.3333 12.0583C83.4531 12.0583 82.9938 12.5359 82.9938 13.0899C82.9938 13.5294 83.3 13.835 84.1229 14.007L85.0222 14.1789C87.2994 14.6374 88.4858 15.5544 88.4858 17.312C88.4858 19.127 86.6488 20.2923 84.3716 20.2923Z" fill="black"/>
<path fill-rule="evenodd" clip-rule="evenodd" d="M97.5203 15.2105C97.5203 17.9616 99.4531 20.2923 102.496 20.2923C105.538 20.2923 107.49 17.9616 107.49 15.2105C107.49 12.4404 105.538 10.1288 102.496 10.1288C99.4531 10.1288 97.5203 12.4404 97.5203 15.2105ZM104.715 15.2105C104.715 16.9682 103.663 17.8088 102.496 17.8088C101.348 17.8088 100.295 16.9682 100.295 15.2105C100.295 13.472 101.348 12.5932 102.496 12.5932C103.663 12.5932 104.715 13.4529 104.715 15.2105Z" fill="black"/>
<path d="M111.788 19.9867H109.032V10.4344H111.788L111.749 12.0392C112.19 11.1031 113.223 10.1479 114.639 10.1479C116.954 10.1479 118.007 11.638 118.007 14.2362V19.9867H115.251V14.5419C115.251 13.1664 114.639 12.4595 113.587 12.4595C112.4 12.4595 111.788 13.4147 111.788 14.7902V19.9867Z" fill="black"/>
<path fill-rule="evenodd" clip-rule="evenodd" d="M119.441 15.2297C119.441 18.1526 121.259 20.2923 124.302 20.2923C127 20.2923 128.435 18.8213 128.856 17.1974L126.292 16.7198C126.12 17.3885 125.45 18.1908 124.283 18.1908C123.077 18.1908 122.082 17.121 122.063 15.841H128.875C128.933 15.6117 128.971 15.287 128.971 14.8476C128.971 12.0774 126.904 10.1288 124.321 10.1288C121.623 10.1288 119.441 12.2876 119.441 15.2297ZM126.292 14.198H122.159C122.216 13.0135 123.192 12.1729 124.283 12.1729C125.354 12.1729 126.33 12.9753 126.292 14.198Z" fill="black"/>
<path d="M93.9371 15.8782V12.6778H96.6706V10.4174H93.9371V7.5871H91.1974V10.4174H89.2124V12.6778H91.1974V15.716C91.1974 15.7311 91.1974 15.7469 91.1974 15.7631C91.1973 15.83 91.1974 15.9866 91.1974 15.9866C91.1974 16.2485 91.1831 16.568 91.2231 16.865C91.2911 17.3701 91.4891 18.1879 92.1942 18.8919C92.8994 19.5959 93.7185 19.7936 94.2245 19.8615C94.617 19.9142 95.0537 19.9134 95.3306 19.913L96.5031 19.9153V17.3478H95.3952C94.7013 17.3478 94.3544 17.3478 94.1388 17.1326C93.9359 16.93 93.9363 16.6113 93.937 15.9969C93.9371 15.9585 93.9371 15.919 93.9371 15.8782Z" fill="black"/>
</g>
<defs>
<clipPath id="clip0_1_101">
<rect width="129" height="28" fill="white"/>
</clipPath>
</defs>
</svg>
