<svg width="241" height="243" viewBox="0 0 241 243" fill="none" xmlns="http://www.w3.org/2000/svg">
<g clip-path="url(#clip0_1_93)">
<path d="M77.335 76.6666C80.0017 75 82.0017 72.3333 83.0017 69.0001C83.3349 67.3333 83.6683 65.3333 83.3349 63.3333C83.0017 59.3333 80.6683 55.3334 77.335 53.3334C76.335 52.6666 75.335 52 74.0018 51.6666C70.6684 50.6666 67.335 50 64.0016 50H50.3351H43.335V104.667L43.6683 105.333H63.335C65.0016 105.333 67.0016 105.333 68.6684 105C71.335 104.667 74.0018 104 76.6684 102.667C80.335 101 83.0017 97.6667 84.3349 93.6667C85.0017 91.6667 85.0017 89.6668 85.0017 88C84.6683 83.3334 81.6683 78.6666 77.335 76.6666ZM55.0017 60.3333H63.335C64.6684 60.3333 66.335 60.6667 67.6684 60.9999C69.335 61.3333 70.6684 62.9999 71.0016 64.9999V65.3333C71.335 66.3333 71.335 67.3333 71.0016 68.3333C70.6684 69.6667 69.6684 71.0001 68.335 71.3333C67.0016 72.0001 65.335 72.3333 64.0016 72.3333H55.0017V60.3333ZM72.335 90.6667C72.0016 92.3334 71.0016 94 69.335 94.6667C68.0016 95 66.6684 95.6667 65.0016 95.6667H55.0017V82H60.6683H65.335C66.335 82 67.335 82.3334 68.0016 82.3334C70.335 83 72.0016 85 72.335 87.3334C72.335 88.3334 72.335 89.3334 72.335 90.6667Z" fill="black"/>
<path d="M83.9998 172.999C83.3332 168.999 80.6666 165.332 76.9998 163.333C79.6666 161.666 81.6666 158.999 82.6666 155.665C82.9998 153.666 83.3332 152 82.9998 150C82.6666 146.666 81.3332 143.666 78.9998 141.666C77.3332 140.333 75.3332 138.999 73.3332 138.333C70.3332 137.333 66.9999 136.999 63.9999 136.666H42.9998V192.333H63.6665C65.3333 192.333 66.6665 192.333 68.3332 192.333C70.6665 192 72.9998 191.666 74.9998 190.667C78.3332 189.332 81.3332 186.666 82.9998 183.333C84.3332 180.332 84.9998 176.333 83.9998 172.999ZM54.9999 147H63.6665C64.9999 147 66.3333 146.999 67.3333 147.666C68.9999 148.333 70.3332 149.667 70.6665 151.666C70.6665 152.666 70.9998 152.999 70.9998 153.999V154.332C70.6665 156 69.6665 157.666 67.9999 158.333C66.6665 158.999 64.9999 159.332 63.6665 159.332H54.9999V147ZM72.3332 177V177.333C71.9998 179.332 70.6665 181 68.6665 181.666C67.3333 182.333 66.3333 182.333 64.9999 182.666H54.9999V168.666H64.9999C66.3333 168.666 67.3332 168.999 68.3332 169.332C70.3332 169.999 71.9998 172 71.9998 173.999C72.3332 174.999 72.3332 176 72.3332 177Z" fill="black"/>
<path d="M144.001 163.001V163.668C144.001 164.001 144.001 164.334 144.001 164.667C144.001 167.668 143.668 170.667 143.335 173.668C142.668 176.667 141.667 179.334 140.334 182C137.668 187 133.001 190.667 127.668 192C125.001 192.667 122.668 193.333 120.001 193.333C117.335 193.333 115.001 193 112.668 192.335C106.001 190.334 100.668 185.334 98.3346 178.668C97.0014 175.334 96.3346 172 96.3346 168.333C96.3346 165.334 96.3346 162.668 96.3346 159.667C96.668 155.334 98.0014 151.334 100.001 147.668C103.001 142.333 108.001 138.666 113.668 137.333C118.335 136.001 123.335 136.334 128.001 137.668C134.335 139.667 139.335 144.001 141.667 150.334C143.002 153.333 143.668 156.667 144.001 159.667C144.001 160.667 144.001 162 144.001 163.001ZM131.001 173.333C131.668 170.667 131.668 167.668 131.668 165.001C131.668 162.668 131.668 160.001 131.335 157.668C131.001 155.334 130.001 153.001 128.668 150.667C127.335 148.333 125.001 147 122.668 146.334C121.668 146.334 120.668 146.334 119.335 146.334H119.001C115.668 146.334 112.668 148.333 110.668 151C109.335 153.001 108.335 155.667 108.001 158.001C107.335 162.335 107.335 166.667 108.001 171C108.335 173.333 109.001 175.667 110.335 177.668C111.668 180.001 114.001 181.667 116.335 182.335C118.001 182.668 119.335 182.668 121.001 182.335C123.668 182 126.001 180.667 127.668 178.668C130.001 177.335 130.668 175.334 131.001 173.333Z" fill="black"/>
<path d="M196.667 64.0027C198 67.6693 199 71.6692 199 75.6692L199.333 78.0026C199.333 81.336 199 84.6692 198.333 88.0025C197.667 90.3359 196.667 93.0025 195.666 95.0025C193 99.6693 188.666 103.336 183.666 105.003C180.999 106.003 178.333 106.336 175.666 106.336C173 106.336 170.334 106.003 167.667 105.003C161.332 103.003 156 98.0027 153.666 92.0025C152 88.3359 151.332 84.336 151.332 80.0026V78.336V74.0026C151.332 68.6692 153 63.6693 155.999 59.0025C159.333 54.0025 164.666 50.6693 170.667 49.6692C174.999 49.0026 179.333 49.0026 183.666 50.6692C189.333 53.0025 194.333 57.6693 196.667 64.0027ZM184.999 89.3359C185.666 87.3359 186.334 85.336 186.334 83.336V83.0026C186.667 79.336 186.667 75.6692 186.334 72.0026C185.999 69.6692 185.666 67.6693 184.666 65.6693C183.666 63.3359 181.667 61.3359 179 60.3359C177.333 59.6693 175.666 59.6693 174 59.6693C170.999 59.6693 168 61.3359 166.332 63.6693C164.999 65.3359 164.333 67.3359 163.666 69.3359C163 72.0026 163 74.6692 162.667 77.336C162.667 77.6692 162.667 78.0026 162.667 78.336V81.6692C162.667 84.0026 163.333 86.0026 164 88.3359C165.334 92.6693 169.666 95.6693 174.333 95.6693C179.333 96.6693 183.333 93.6693 184.999 89.3359Z" fill="black"/>
<path d="M152 147.002H168.666V192.334H180.666V147.002H197.665V137.002H152V147.002Z" fill="black"/>
<path d="M122.332 105.002H122.999V50.3351H110.999V105.668H122.332V105.002Z" fill="black"/>
<path d="M0 242.667V0.00109863H240.999V243.002H0V242.667ZM12.6667 12.6678V229.668H228.333V12.6678H12.6667Z" fill="black"/>
</g>
<defs>
<clipPath id="clip0_1_93">
<rect width="241" height="243" fill="white"/>
</clipPath>
</defs>
</svg>
