<svg width="220" height="57" viewBox="0 0 220 57" fill="none" xmlns="http://www.w3.org/2000/svg">
<g clip-path="url(#clip0_1_2)">
<mask id="mask0_1_2" style="mask-type:luminance" maskUnits="userSpaceOnUse" x="0" y="0" width="220" height="57">
<path d="M220 0H0V57H220V0Z" fill="white"/>
</mask>
<g mask="url(#mask0_1_2)">
<path fill-rule="evenodd" clip-rule="evenodd" d="M94.8783 22.7329H104.549C105.403 22.7329 106.091 21.9831 105.986 21.1092C105.898 20.376 105.249 19.8384 104.511 19.8384H92.4883C91.6923 19.8384 91.0412 20.4895 91.0412 21.2858V35.7583C91.0412 36.5546 91.6923 37.2057 92.4883 37.2057H104.549C105.403 37.2057 106.091 36.4557 105.986 35.5817C105.898 34.8488 105.249 34.3112 104.511 34.3112H94.8783C94.3576 34.3112 93.9355 33.8891 93.9355 33.3684V30.9118C93.9355 30.3913 94.3576 29.9692 94.8783 29.9692H102.137C102.991 29.9692 103.678 29.2194 103.573 28.3457C103.485 27.6123 102.837 27.0746 102.099 27.0746H94.8783C94.3576 27.0746 93.9355 26.6528 93.9355 26.1321V23.6755C93.9355 23.155 94.3576 22.7329 94.8783 22.7329ZM78.2375 22.7329C79.8537 22.7329 81.2045 23.3119 82.3141 24.4455C82.5795 24.7109 82.9413 24.8557 83.3513 24.8557C84.1473 24.8557 84.7987 24.2043 84.7987 23.4083C84.7987 22.9983 84.6057 22.6123 84.1954 22.2505C82.4829 20.6343 80.4809 19.8384 78.2375 19.8384C75.8496 19.8384 73.7992 20.6828 72.0866 22.3954C70.3983 24.0837 69.5541 26.1341 69.5541 28.522C69.5541 30.91 70.3983 32.9604 72.0866 34.673C73.7992 36.3613 75.8496 37.2057 78.2375 37.2057C80.6257 37.2057 82.6759 36.3613 84.3645 34.673C84.9432 34.094 84.9432 33.1774 84.3645 32.6226C83.8094 32.0438 82.8931 32.0438 82.3141 32.6226C81.1805 33.7564 79.8297 34.3112 78.2375 34.3112C76.6456 34.3112 75.2708 33.7564 74.137 32.6226C73.0032 31.489 72.4486 30.114 72.4486 28.522C72.4486 26.9301 73.0032 25.5793 74.137 24.4455C75.2708 23.3119 76.6456 22.7329 78.2375 22.7329ZM125.4 34.3112H115.769C115.248 34.3112 114.825 33.8883 114.825 33.3668V21.3236C114.825 20.5851 114.287 19.9368 113.554 19.849C112.68 19.7443 111.93 20.4318 111.93 21.2858V35.7583C111.93 36.5546 112.581 37.2057 113.378 37.2057H125.438C126.292 37.2057 126.98 36.4557 126.875 35.5817C126.786 34.8488 126.138 34.3112 125.4 34.3112ZM186.299 19.8384H171.865C171.011 19.8384 170.323 20.5884 170.428 21.4621C170.516 22.1953 171.165 22.7329 171.903 22.7329H176.711C177.232 22.7329 177.654 23.155 177.654 23.6757V35.7583C177.654 36.6126 178.404 37.3001 179.278 37.1951C180.011 37.1068 180.548 36.4584 180.548 35.72V23.6757C180.548 23.155 180.971 22.7329 181.491 22.7329H186.337C187.192 22.7329 187.879 21.9831 187.774 21.1092C187.686 20.376 187.038 19.8384 186.299 19.8384ZM193.947 19.8384C193.151 19.8384 192.5 20.4895 192.5 21.2858V35.7583C192.5 36.5546 193.151 37.2057 193.947 37.2057C194.743 37.2057 195.394 36.5546 195.394 35.7583V21.2858C195.394 20.4895 194.743 19.8384 193.947 19.8384ZM164.989 28.3533C163.662 27.5088 161.877 27.0746 159.634 27.0746C156.667 27.0746 155.172 26.3511 155.172 24.9037C155.172 23.4565 156.667 22.7329 159.634 22.7329C161.274 22.7329 162.842 23.0465 164.338 23.6495C165.206 23.9149 165.809 23.6013 166.147 22.7571C166.436 22.0093 166.05 21.2858 165.254 20.924C163.59 20.2001 161.732 19.8384 159.634 19.8384C157.439 19.8384 155.678 20.2968 154.303 21.1891C152.952 22.0818 152.277 23.3359 152.277 24.9037C152.277 26.5683 152.952 27.8467 154.279 28.6908C155.606 29.535 157.391 29.9692 159.634 29.9692C162.601 29.9692 164.096 30.6928 164.096 32.1402C164.096 33.5873 162.601 34.3112 159.634 34.3112H158.91C157.415 34.3112 155.847 33.9976 154.23 33.3943C153.483 33.1292 152.711 33.4667 152.398 34.263C152.108 35.0108 152.542 35.8789 153.29 36.1443C154.955 36.8437 156.812 37.2057 158.91 37.2057H159.634C161.829 37.2057 163.59 36.7473 164.941 35.8547C166.316 34.9623 166.991 33.7079 166.991 32.1402C166.991 30.4758 166.316 29.1974 164.989 28.3533ZM135.423 22.7329H145.096C145.95 22.7329 146.638 21.9831 146.533 21.1092C146.445 20.376 145.796 19.8384 145.058 19.8384H133.036C132.239 19.8384 131.588 20.4895 131.588 21.2858V35.7583C131.588 36.5546 132.239 37.2057 133.036 37.2057H145.096C145.95 37.2057 146.638 36.4557 146.533 35.5817C146.444 34.8488 145.796 34.3112 145.058 34.3112H135.423C134.904 34.3112 134.483 33.8901 134.483 33.3709V30.9098C134.483 30.3903 134.904 29.9692 135.423 29.9692H142.684C143.538 29.9692 144.225 29.2194 144.121 28.3457C144.033 27.6123 143.384 27.0746 142.646 27.0746H135.423C134.904 27.0746 134.483 26.6538 134.483 26.1343V23.6732C134.483 23.1537 134.904 22.7329 135.423 22.7329ZM53.7721 28.8177C53.7668 28.9916 53.5302 29.0375 53.4618 28.8773C53.4325 28.8081 53.4025 28.7388 53.372 28.6694C53.3162 28.5425 53.3319 28.3949 53.4151 28.2839C53.4323 28.2612 53.4673 28.2153 53.5092 28.1605C53.6217 28.0134 53.784 28.0354 53.784 28.1986C53.784 28.4128 53.7789 28.5982 53.7721 28.8177ZM52.5268 25.4168C52.335 25.7622 51.8433 25.7781 51.6304 25.4451C51.5973 25.3936 51.564 25.3421 51.5305 25.2904C50.763 24.112 49.8797 22.9552 48.8933 21.831C48.6511 21.555 48.8491 21.1218 49.2164 21.1215H49.2253C51.5305 21.1215 52.739 21.6909 53.1078 22.3863C53.4156 22.9678 53.3213 23.9848 52.5268 25.4168ZM52.0116 37.4719C51.888 37.7865 51.7586 38.0991 51.6226 38.4087C51.6014 38.4513 51.5814 38.4945 51.5595 38.5368C50.711 40.1699 49.2873 41.4559 47.3848 42.3508C46.9579 42.5513 46.4909 42.1608 46.6181 41.7067C47.2498 39.4456 47.7279 36.9936 48.0377 34.4229C48.0955 33.9436 48.3319 33.5036 48.6972 33.1877C49.4796 32.5108 50.2102 31.8349 50.8823 31.1638L50.8897 31.1562C51.2204 30.8262 51.7845 30.9683 51.9193 31.4159C52.5833 33.6232 52.6201 35.6791 52.0116 37.4719ZM46.8401 45.6351C46.6466 45.842 46.449 46.0464 46.2477 46.2477C45.897 46.5979 45.538 46.9367 45.1712 47.2639C44.9398 47.4701 44.5899 47.2122 44.7208 46.9312C44.7582 46.8509 44.7953 46.7702 44.8321 46.6887C44.9862 46.3489 45.1351 46.0002 45.2799 45.645C45.3142 45.5612 45.3864 45.4986 45.4742 45.4762C45.839 45.3836 46.1947 45.2814 46.5411 45.1696C46.8219 45.0793 47.0419 45.4197 46.8401 45.6351ZM43.0423 43.5941C42.2743 43.7053 41.4667 43.7772 40.6218 43.807C38.5603 43.8792 36.3805 43.7013 34.1414 43.289C33.8684 43.2388 33.8159 42.8697 34.0634 42.7446C34.5519 42.4973 35.0406 42.2445 35.529 41.9857C38.9552 40.1697 42.152 38.1846 44.9504 36.1494C45.1603 35.9967 45.4494 36.1769 45.4068 36.433C45.0188 38.7654 44.4814 40.9611 43.8065 42.9542C43.6915 43.2938 43.3973 43.5426 43.0423 43.5941ZM42.2504 46.7016C40.4134 50.3144 38.1511 52.3428 35.9582 52.302C33.5747 52.2596 31.1981 49.7775 29.4381 45.4928L29.4361 45.488C29.3244 45.2161 29.4528 44.9047 29.7222 44.7877C29.7409 44.7793 29.7596 44.7713 29.7782 44.7629C29.8938 44.7127 30.0235 44.7037 30.1451 44.738C33.4372 45.6619 36.681 46.144 39.7201 46.144C40.0504 46.144 40.3783 46.1384 40.7036 46.1271C41.0843 46.1135 41.4589 46.092 41.827 46.0628C42.1684 46.0358 42.4058 46.3963 42.2504 46.7016ZM31.3725 53.572C30.2803 53.7123 29.172 53.7842 28.0528 53.7842C23.0513 53.7842 18.2676 52.3668 14.1605 49.722C13.8779 49.5399 13.998 49.1014 14.3338 49.086C14.4035 49.0827 14.4686 49.0792 14.5258 49.0756C15.5696 49.0078 16.714 48.8549 17.954 48.616C20.5917 48.1086 23.5239 47.2382 26.594 46.066C26.8693 45.9611 27.1766 46.0976 27.2886 46.3701L27.2906 46.3748C28.4804 49.2717 29.9447 51.4606 31.5889 52.853C31.8607 53.0833 31.7257 53.5266 31.3725 53.572ZM16.4925 35.5431C18.7598 33.6968 21.4165 31.8546 24.3307 30.1105C24.3933 33.8379 24.802 37.4164 25.5253 40.6488C24.4445 40.1879 23.3669 39.6802 22.2987 39.1254C20.2297 38.0502 18.283 36.8457 16.4925 35.5431ZM9.44108 45.5304C8.90016 44.5099 9.59927 42.1459 13.1508 38.553L13.1526 38.5512C13.5235 38.1766 13.4879 37.5617 13.0739 37.2355C12.9316 37.1237 12.7903 37.0107 12.65 36.8977C12.2963 36.6118 11.7844 36.6381 11.4632 36.9598C11.3928 37.0301 11.3404 37.0831 11.325 37.099C9.54957 38.9213 8.30702 40.6082 7.61094 42.1255C7.41365 42.5554 6.81773 42.6018 6.55686 42.2072C3.80156 38.0421 2.32161 33.1615 2.32161 28.0528C2.32161 26.2264 2.51133 24.4291 2.88044 22.6832C2.93619 22.4191 3.30883 22.4022 3.38704 22.6605C3.9209 24.423 4.7898 26.2461 5.99046 28.0896C7.60665 30.5717 9.73803 32.9576 12.2638 35.1463C13.1258 35.8933 14.0364 36.6159 14.986 37.313C16.911 38.7256 19.0028 40.0292 21.2283 41.1854C22.2147 41.6981 23.1755 42.1873 24.1594 42.6303C24.7071 42.8768 25.3305 42.896 25.8896 42.6765C26.3536 42.4948 26.8208 42.3059 27.2909 42.1093C27.802 41.8961 28.0793 41.3388 27.9438 40.8017C27.9269 40.7346 27.9135 40.6806 27.906 40.6488C27.1312 37.3881 26.7005 33.7175 26.6498 29.8728L26.6483 29.8736C26.6478 29.8279 26.648 29.7815 26.6475 29.7353C26.6453 29.5252 26.6465 29.3135 26.6427 29.1038C26.6415 29.037 26.6435 28.9237 26.6442 28.8566C26.6447 28.8298 26.6442 28.8034 26.6442 28.7769L26.6453 28.7766C26.6465 28.5359 26.6483 28.2955 26.6526 28.054C26.6644 27.3945 26.6881 26.7398 26.7222 26.0904L26.7209 26.0912C26.9599 21.4518 27.7465 17.0924 28.9981 13.4253C29.1139 13.086 28.933 12.7176 28.5937 12.6018C28.263 12.4888 27.9325 12.3808 27.6025 12.2774C27.2687 12.1727 26.9119 12.3528 26.7991 12.6841C25.4426 16.6665 24.6055 21.3912 24.3822 26.3909C24.3537 27.0252 24.0085 27.6024 23.4623 27.9261C20.5011 29.6811 17.7817 31.5415 15.4323 33.4168C14.9429 33.8076 14.2438 33.7927 13.7705 33.3822C11.4158 31.3407 9.43402 29.1233 7.9359 26.8226C4.99188 22.302 4.29227 18.0433 5.96649 14.8331C5.97103 14.8255 5.97507 14.8177 5.97936 14.8104C6.1928 14.4562 6.41482 14.1067 6.64592 13.7621C8.56966 11.2157 12.1502 9.74004 16.8989 9.57328C17.1994 9.56268 17.5019 9.55738 17.8072 9.55738C20.7199 9.55738 23.8458 10.038 27.025 10.9554L27.0257 10.9546C27.0953 10.9748 27.165 10.9957 27.2346 11.0162C27.2883 11.032 27.3421 11.0469 27.3958 11.0631C28.1305 11.2826 28.8672 11.526 29.6049 11.7915C29.6221 11.7975 29.6395 11.8038 29.6566 11.8099C29.8489 11.8792 30.0409 11.9504 30.2329 12.0228C30.2929 12.0455 30.3532 12.0685 30.4133 12.0917C30.471 12.1139 30.5288 12.1353 30.5868 12.1578L30.5861 12.1588C32.1387 12.7598 33.69 13.4586 35.222 14.2548C38.1872 15.7954 40.9014 17.6013 43.2633 19.5825C38.7556 20.6152 33.516 22.6073 28.2478 25.2932C28.0049 25.4173 27.8449 25.6615 27.8295 25.934C27.8111 26.2605 27.7869 26.917 27.7695 27.4387C27.7586 27.7662 28.105 27.9831 28.3952 27.8308L28.3982 27.829C33.6141 25.0901 38.8197 23.043 43.2901 21.9612C44.1257 21.7591 44.6666 20.9565 44.5493 20.105C44.467 19.5101 44.3744 18.9245 44.272 18.3493C44.1433 17.6267 43.7477 16.9806 43.1639 16.5361C41.0701 14.9411 38.7627 13.478 36.2925 12.1944C34.6278 11.3295 32.9387 10.5716 31.2461 9.92523C30.884 9.78697 30.7289 9.35908 30.9178 9.02075C32.6617 5.90114 34.7358 4.15401 36.7564 4.15401C36.7774 4.15401 36.7983 4.15401 36.8192 4.15451C39.2027 4.19715 41.5793 6.67896 43.3393 10.9637C44.2301 13.1326 44.9204 15.6339 45.3922 18.3521C45.3897 18.3498 45.3871 18.3478 45.3849 18.3455C45.5862 19.5056 45.7484 20.7045 45.8688 21.9344C45.8584 21.941 45.8473 21.9468 45.837 21.9533C45.8511 21.9677 45.866 21.9821 45.8804 21.9967C46.0799 24.0605 46.1642 26.2095 46.1248 28.4025C46.1001 29.7896 46.0262 31.1575 45.9066 32.4959C42.7179 35.0729 38.7753 37.6374 34.4416 39.934C33.0174 40.6889 31.5935 41.3915 30.1834 42.0384C30.1615 42.0485 30.1398 42.0584 30.1178 42.0684C30.0101 42.1176 29.9021 42.1676 29.7944 42.2163L29.7919 42.2155C28.6235 42.7441 27.4662 43.233 26.3281 43.6796L26.3286 43.6806C26.2643 43.7058 26.2005 43.7301 26.1364 43.755C26.0564 43.7863 25.9764 43.8171 25.8967 43.8479C25.7057 43.921 25.5155 43.9932 25.3258 44.0641C25.2735 44.0835 25.2211 44.104 25.1688 44.1231C24.9385 44.2087 24.7094 44.2917 24.4811 44.3734C24.4526 44.3835 24.4241 44.3943 24.3958 44.4044L24.3948 44.4039C21.9559 45.2726 19.6325 45.9288 17.5153 46.3362C12.399 47.3212 9.98982 46.5656 9.44108 45.5304ZM13.1158 7.09575C17.4461 3.99481 22.6207 2.3216 28.0528 2.3216C29.4866 2.3216 30.9019 2.43892 32.2888 2.66775C32.6602 2.72906 32.7848 3.20312 32.4886 3.43548C31.1447 4.48906 29.8961 6.04798 28.791 8.06961C28.5213 8.56284 27.9494 8.80403 27.4084 8.65165C23.7474 7.62103 20.1454 7.13612 16.8174 7.25293C15.5897 7.29607 14.4272 7.42046 13.335 7.62179C13.0282 7.6783 12.8622 7.27715 13.1158 7.09575ZM48.4364 25.8487C48.4288 25.5538 48.8072 25.4279 48.9783 25.6681C49.1884 25.963 49.391 26.2595 49.585 26.5574C49.8429 26.9535 50.0828 27.3474 50.3058 27.7387C50.4449 27.9826 50.4116 28.2887 50.2223 28.4961C49.9219 28.8261 49.5959 29.1672 49.2419 29.5209C49.1128 29.6498 48.9811 29.779 48.8468 29.9084C48.6803 30.0694 48.401 29.9467 48.4101 29.7151C48.4265 29.2931 48.4386 28.8695 48.4462 28.4438C48.4618 27.5719 48.458 26.7063 48.4364 25.8487ZM45.7678 9.39062C45.9296 9.54401 46.0895 9.69993 46.2477 9.85812C48.7272 12.3377 50.6371 15.235 51.9142 18.3904C52.0431 18.7086 51.7729 19.0416 51.4351 18.9808C50.6961 18.8481 49.8646 18.7888 48.944 18.8042C48.3059 18.8148 47.7514 18.3677 47.6394 17.7395C47.1391 14.9343 46.4157 12.343 45.4868 10.0814C45.4338 9.95247 45.3803 9.82507 45.3261 9.69892C45.208 9.42367 45.5506 9.18424 45.7678 9.39062ZM55.4998 22.2182C54.3912 16.9511 51.7845 12.1116 47.8891 8.21619C42.5907 2.91777 35.5462 0 28.0528 0C20.5597 0 13.5149 2.91777 8.21645 8.21619C6.92773 9.5049 5.78156 10.8973 4.78223 12.3737C4.48502 12.7693 4.21886 13.1871 3.9822 13.6244C1.38636 17.9378 0 22.8888 0 28.0528C0 35.5462 2.91803 42.5907 8.21645 47.8891C13.5149 53.1875 20.5597 56.1058 28.0528 56.1058C35.5462 56.1058 42.5907 53.1875 47.8891 47.8891C50.3899 45.3886 52.3595 42.4989 53.7431 39.3568C53.9121 39.0086 54.0597 38.6521 54.1866 38.2886C55.4461 35.0703 56.1058 31.6124 56.1058 28.0528C56.1058 26.0935 55.9045 24.1657 55.5152 22.2909C55.5099 22.2667 55.5051 22.2425 55.4998 22.2182ZM212.637 30.6928H207.331C206.832 30.6928 206.521 30.1526 206.771 29.7207L209.432 25.1264C209.682 24.695 210.305 24.696 210.554 25.1279L213.199 29.7225C213.447 30.1541 213.135 30.6928 212.637 30.6928ZM219.619 35.059L211.249 20.538C210.646 19.5972 209.343 19.5972 208.74 20.538L200.37 35.059C200.269 35.2409 200.219 35.4228 200.205 35.6334C200.152 36.4534 200.789 37.1863 201.611 37.2052C202.184 37.2186 202.63 36.9297 202.975 36.3134L204.269 34.0634C204.439 33.769 204.752 33.5873 205.092 33.5873H214.873C215.212 33.5873 215.526 33.769 215.695 34.0634L216.99 36.3134C217.316 36.8972 217.757 37.1873 218.288 37.2047C219.101 37.2317 219.788 36.5712 219.788 35.7583C219.788 35.5414 219.74 35.3241 219.619 35.059Z" fill="black"/>
</g>
</g>
<defs>
<clipPath id="clip0_1_2">
<rect width="220" height="57" fill="white"/>
</clipPath>
</defs>
</svg>
