<svg width="160" height="37" viewBox="0 0 160 37" fill="none" xmlns="http://www.w3.org/2000/svg">
<path d="M49.741 5.79785L43.8398 21.4666H46.6506L47.9628 17.8852H54.0168L55.3215 21.4666H58.2404L52.3803 5.79785H49.741ZM48.891 15.3573L49.8938 12.625C49.9945 12.3278 50.1026 11.992 50.2181 11.6177C50.3486 11.2433 50.4791 10.8574 50.6058 10.4522C50.7363 10.0508 50.8593 9.66101 50.9749 9.28666C50.9861 9.25579 50.9935 9.22877 51.001 9.19404C51.1166 9.57611 51.2433 9.99291 51.385 10.4483C51.5303 10.896 51.6571 11.3128 51.7726 11.7026C51.9031 12.0924 52.0038 12.3741 52.0746 12.5516L53.0923 15.3496H48.891V15.3573Z" fill="black"/>
<path d="M63.0003 4.84766H60.2803V21.46H63.0003V4.84766Z" fill="black"/>
<path d="M75.2335 10.2115C74.4428 9.68898 73.5386 9.42578 72.5134 9.42578C71.8703 9.42578 71.2498 9.55351 70.6483 9.80897C70.0619 10.0644 69.5663 10.4012 69.1577 10.8192C69.0442 10.9314 68.9421 11.0475 68.8551 11.1675L68.8286 9.63092H66.1729V26.3981H68.8929V20.0504C68.9383 20.1008 68.9762 20.1511 69.0253 20.2014C69.4642 20.6349 69.99 20.9871 70.6067 21.258C71.2347 21.529 71.8854 21.6606 72.5588 21.6606C73.5537 21.6606 74.4466 21.3974 75.2372 20.8749C76.043 20.3369 76.6711 19.6092 77.125 18.6957C77.5941 17.7668 77.8287 16.714 77.8287 15.5296C77.8287 14.3452 77.5941 13.277 77.125 12.3635C76.6711 11.4501 76.043 10.734 75.2372 10.2076L75.2335 10.2115ZM74.7719 17.4417C74.5071 17.9952 74.1363 18.4287 73.6521 18.7422C73.1679 19.0557 72.6193 19.2144 72.0064 19.2144C71.3936 19.2144 70.7996 19.0557 70.3154 18.7422C69.8463 18.4287 69.4755 17.9952 69.1956 17.4417C68.9194 16.8882 68.7794 16.2534 68.7794 15.5335C68.7794 14.8136 68.9194 14.1788 69.1956 13.6253C69.4717 13.0718 69.8463 12.6461 70.3154 12.3442C70.7996 12.0307 71.3633 11.872 72.0064 11.872C72.6496 11.872 73.1906 12.0307 73.6748 12.3442C74.159 12.6577 74.5298 13.0912 74.7946 13.6447C75.0594 14.1827 75.1881 14.8136 75.1881 15.5296C75.1881 16.2457 75.0481 16.8843 74.7719 17.4378V17.4417Z" fill="black"/>
<path d="M89.2279 11.044C88.7437 10.5215 88.1762 10.1074 87.5179 9.80933C86.8597 9.5113 86.1522 9.36035 85.388 9.36035C84.5255 9.36035 83.7272 9.51904 82.9971 9.83256C82.2783 10.1306 81.6578 10.5641 81.132 11.1331C80.6213 11.6866 80.2165 12.3445 79.9252 13.107C79.6339 13.8695 79.4863 14.7172 79.4863 15.6422C79.4863 16.8112 79.7436 17.8485 80.2543 18.7619C80.7802 19.6599 81.5065 20.3721 82.4258 20.8946C83.3603 21.4171 84.4385 21.6803 85.6528 21.6803C86.1938 21.6803 86.7424 21.6068 87.2985 21.4558C87.8546 21.3049 88.3805 21.1036 88.8799 20.8481C89.3906 20.5772 89.8446 20.2559 90.2418 19.8844L88.9026 17.9762C88.3767 18.4407 87.8849 18.7619 87.4309 18.94C86.9769 19.118 86.4813 19.2109 85.9404 19.2109C85.1648 19.2109 84.4838 19.0599 83.9012 18.7619C83.33 18.4484 82.8836 18.0072 82.562 17.4382C82.3577 17.055 82.2253 16.6292 82.1572 16.157H90.6806L90.7033 15.1933C90.7185 14.3534 90.5936 13.5831 90.3288 12.8825C90.0791 12.1626 89.7159 11.5511 89.2317 11.0402L89.2279 11.044ZM83.5683 12.2323C84.0677 11.9497 84.673 11.8065 85.388 11.8065C85.8571 11.8065 86.2808 11.911 86.6592 12.1201C87.0526 12.3136 87.3779 12.5923 87.6239 12.9522C87.8735 13.2967 88.0173 13.6992 88.0627 14.1637V14.2759H82.2064C82.2669 13.9779 82.3539 13.707 82.4674 13.467C82.7171 12.929 83.0803 12.5148 83.5645 12.2323H83.5683Z" fill="black"/>
<path d="M101.623 9.92179C101.037 9.56183 100.307 9.38379 99.4289 9.38379C98.816 9.38379 98.2145 9.51926 97.6281 9.78633C97.0418 10.0573 96.5386 10.4134 96.1149 10.8623C95.9787 11.0055 95.8576 11.1526 95.7517 11.3036L95.7214 9.62763H93.0884V21.4599H95.7857V14.3226C95.7857 13.9626 95.8501 13.6337 95.9825 13.3356C96.13 13.0376 96.3192 12.7744 96.5537 12.5499C96.8034 12.3099 97.0871 12.1319 97.4087 12.0119C97.7454 11.8764 98.1124 11.8106 98.5058 11.8106C98.9901 11.7951 99.3986 11.8842 99.7353 12.0816C100.072 12.2596 100.322 12.5538 100.481 12.9563C100.643 13.3472 100.723 13.8388 100.723 14.4387V21.4638H103.42V14.2297C103.42 13.1537 103.265 12.2557 102.959 11.5358C102.667 10.8159 102.221 10.2779 101.619 9.91792L101.623 9.92179Z" fill="black"/>
<path d="M113.081 5.74512H110.229V21.4595H120.167V18.7656H113.081V5.74512Z" fill="black"/>
<path d="M130.744 11.3113C130.525 10.9629 130.256 10.6494 129.931 10.3707C129.564 10.0572 129.14 9.81725 128.66 9.65082C128.175 9.47278 127.642 9.37988 127.059 9.37988C126.049 9.37988 125.141 9.64308 124.339 10.1656C123.533 10.6881 122.898 11.4158 122.429 12.3447C121.96 13.2737 121.725 14.3264 121.725 15.5108C121.725 16.6952 121.96 17.748 122.429 18.6769C122.898 19.6059 123.518 20.3374 124.294 20.8754C125.069 21.4134 125.932 21.6844 126.882 21.6844C127.438 21.6844 127.956 21.5953 128.44 21.4134C128.94 21.2354 129.382 21.0031 129.779 20.7167C130.158 20.4419 130.468 20.1323 130.721 19.7917V21.456H133.464V9.6276H130.744V11.3074V11.3113ZM129.295 18.766C128.811 19.0795 128.259 19.2382 127.627 19.2382C126.995 19.2382 126.443 19.0795 125.958 18.766C125.489 18.4524 125.126 18.0189 124.861 17.4655C124.596 16.8965 124.468 16.2462 124.468 15.5108C124.468 14.7754 124.6 14.1561 124.861 13.6027C125.122 13.0492 125.489 12.6157 125.958 12.3021C126.443 11.9886 126.995 11.8299 127.627 11.8299C128.259 11.8299 128.811 11.9886 129.295 12.3021C129.779 12.6157 130.15 13.0492 130.415 13.6027C130.691 14.1561 130.831 14.7909 130.831 15.5108C130.831 16.2308 130.691 16.8965 130.415 17.4655C130.15 18.0189 129.779 18.4524 129.295 18.766Z" fill="black"/>
<path d="M145.637 10.1697C144.846 9.64714 143.93 9.38394 142.894 9.38394C142.425 9.38394 141.963 9.46522 141.513 9.63165C141.059 9.7826 140.643 9.99161 140.261 10.2587C139.879 10.5141 139.557 10.8044 139.296 11.1334V4.84766H136.599V21.4136H139.209L139.243 19.997C139.493 20.2911 139.795 20.5621 140.155 20.8059C140.548 21.0769 140.987 21.2936 141.471 21.4562C141.971 21.6071 142.474 21.6807 142.985 21.6807C143.98 21.6807 144.872 21.4175 145.663 20.8949C146.469 20.3569 147.097 19.6215 147.551 18.6965C148.005 17.7675 148.232 16.707 148.232 15.5071C148.232 14.3073 147.997 13.27 147.528 12.341C147.074 11.4121 146.446 10.6883 145.64 10.1619L145.637 10.1697ZM145.198 17.4656C144.922 18.0191 144.539 18.4604 144.055 18.7894C143.571 19.1029 143.022 19.2616 142.41 19.2616C141.797 19.2616 141.225 19.1029 140.741 18.7894C140.257 18.4604 139.879 18.0191 139.599 17.4656C139.322 16.8967 139.183 16.2464 139.183 15.511C139.183 14.7756 139.322 14.1563 139.599 13.6028C139.875 13.0493 140.257 12.6158 140.741 12.3023C141.225 11.9888 141.778 11.8301 142.41 11.8301C143.041 11.8301 143.594 11.9888 144.078 12.3023C144.562 12.6158 144.933 13.0493 145.198 13.6028C145.474 14.1563 145.614 14.7911 145.614 15.511C145.614 16.2309 145.474 16.8967 145.198 17.4656Z" fill="black"/>
<path d="M158.729 16.8346C158.611 16.4746 158.415 16.1611 158.135 15.8902C157.859 15.5767 157.476 15.298 156.992 15.058C156.508 14.818 155.91 14.6013 155.191 14.4078C154.681 14.2878 154.261 14.16 153.939 14.0246C153.618 13.8891 153.376 13.7691 153.217 13.6646C153.069 13.5601 152.952 13.4324 152.865 13.2814C152.793 13.115 152.748 12.9447 152.732 12.7666C152.732 12.5576 152.77 12.3757 152.842 12.2286C152.929 12.0622 153.046 11.9306 153.194 11.8261C153.342 11.7216 153.523 11.6481 153.743 11.6016C153.962 11.5436 154.212 11.5126 154.488 11.5126C154.779 11.5126 155.093 11.5784 155.43 11.7139C155.767 11.8338 156.096 11.9964 156.417 12.2093C156.754 12.4183 157.06 12.6583 157.34 12.9292L158.831 11.2455C158.494 10.8546 158.086 10.5256 157.601 10.2585C157.132 9.97598 156.621 9.75536 156.065 9.60828C155.524 9.45733 154.961 9.38379 154.374 9.38379C153.788 9.38379 153.255 9.46507 152.729 9.6315C152.203 9.79794 151.741 10.034 151.348 10.3514C150.954 10.6649 150.637 11.0404 150.406 11.4739C150.186 11.8919 150.077 12.3641 150.077 12.8866C150.077 13.3047 150.133 13.6956 150.251 14.0555C150.383 14.4155 150.572 14.7368 150.822 15.0193C151.113 15.3638 151.526 15.6773 152.051 15.9637C152.577 16.2347 153.236 16.4746 154.026 16.6836C154.522 16.8036 154.927 16.9236 155.233 17.0436C155.555 17.1636 155.789 17.2758 155.937 17.3803C156.202 17.5893 156.33 17.8758 156.33 18.2319C156.33 18.4254 156.285 18.6073 156.198 18.7699C156.126 18.9208 156.016 19.0524 155.869 19.1724C155.721 19.2924 155.547 19.3814 155.343 19.4433C155.154 19.5014 154.934 19.5324 154.685 19.5324C154.083 19.5324 153.516 19.4201 152.975 19.1956C152.434 18.9711 151.942 18.6034 151.503 18.0964L149.748 19.6446C150.258 20.3026 150.917 20.8135 151.722 21.1696C152.54 21.5141 153.463 21.6844 154.488 21.6844C155.32 21.6844 156.069 21.5257 156.727 21.2122C157.401 20.8987 157.927 20.4652 158.309 19.9117C158.702 19.3582 158.903 18.7312 158.903 18.0267C158.903 17.5932 158.846 17.1946 158.729 16.8385V16.8346Z" fill="black"/>
<path d="M12.1717 21.4802H8.65457H5.23189H1.0957L8.15818 1.12109H12.7446L19.807 21.4802H15.6427H12.1717Z" fill="#F7612A"/>
<path d="M25.4167 21.4805H28.0007H30.5154H33.5542L28.3654 35.9668H24.9958L19.8071 21.4805H22.8666H25.4167Z" fill="#F7612A"/>
</svg>
