<svg width="152" height="41" viewBox="0 0 152 41" fill="none" xmlns="http://www.w3.org/2000/svg">
<g clip-path="url(#clip0_1_43)">
<mask id="mask0_1_43" style="mask-type:luminance" maskUnits="userSpaceOnUse" x="0" y="0" width="152" height="41">
<path d="M151.3 0H0V41H151.3V0Z" fill="white"/>
</mask>
<g mask="url(#mask0_1_43)">
<path d="M30.9 3.79999L30.6 4.09999C30 4.59999 29.2 4.79999 28.5 4.49999L26.3 3.59999C25.6 3.29999 25.1 2.59999 25.1 1.79999V1.29999C25.1 0.499994 24.4 -0.100006 23.7 -0.100006H17.6C16.8 -0.100006 16.2 0.499994 16.2 1.29999V1.79999C16.2 2.59999 15.7 3.29999 15 3.59999L12.8 4.49999C12.1 4.79999 11.2 4.59999 10.7 4.09999L10.4 3.79999C9.8 3.29999 9 3.29999 8.4 3.79999L3.9 8.09999C3.4 8.59999 3.3 9.49999 3.9 10.1L4.2 10.4C4.7 11 4.9 11.8 4.6 12.5L3.7 14.7C3.4 15.4 2.7 15.9 1.9 15.9H1.4C0.6 15.9 0 16.6 0 17.3V23.4C0 24.2 0.6 24.8 1.4 24.8H1.9C2.7 24.8 3.4 25.3 3.7 26L4.6 28.2C4.9 28.9 4.7 29.8 4.2 30.3L3.9 30.6C3.4 31.2 3.4 32 3.9 32.6L8.2 36.9C8.7 37.4 9.6 37.5 10.2 36.9L10.5 36.6C11.1 36.1 11.9 35.9 12.6 36.2L14.8 37.1C15.5 37.4 16 38.1 16 38.9V39.4C16 40.2 16.7 40.8 17.4 40.8H23.5C24.3 40.8 24.9 40.2 24.9 39.4V38.9C24.9 38.1 25.4 37.4 26.1 37.1L28.3 36.2C29 35.9 29.9 36.1 30.4 36.6L30.7 36.9C31.3 37.4 32.1 37.4 32.7 36.9L34.1 35.5L26.3 27.7C25.3 26.7 23 24.4 20 27.4C19.1 28.3 18.5 29.5 17.6 30.4C15.5 32.5 13 31.5 12 29.5C11.4 28.3 11.6 28.2 11 27.1C10.3 26 9.1 25.2 8.7 23.8C8.4 22.4 9.1 22 9.1 21.3C9.1 20.6 8.4 19.8 8.6 18.8C8.7 18 9.3 17.5 9.4 17.1C9.5 16.7 9.5 16.4 9.6 15.8C10 14 11.7 13.1 13.2 14.1C14.2 14.8 16.4 17.2 16.7 16.9C17 16.6 14.6 14.4 13.9 13.4C12.9 11.9 13.8 10.1 15.6 9.79999C16.2 9.69999 16.6 9.69999 16.9 9.59999C17.3 9.39999 17.7 8.89999 18.6 8.79999C19.6 8.59999 20.5 9.29999 21.1 9.29999C21.8 9.29999 22.3 8.59999 23.6 8.89999C25 9.19999 25.8 10.5 26.9 11.2C28 11.9 28 11.7 29.3 12.2C31.3 13.2 32.4 15.7 30.2 17.8C29.3 18.7 28.1 19.2 27.2 20.2C24.2 23.2 26.6 25.5 27.5 26.5L35.3 34.3L36.7 32.9C37.2 32.4 37.3 31.5 36.7 30.9L36.4 30.6C35.9 30 35.7 29.2 36 28.5L36.9 26.3C37.2 25.6 37.9 25.1 38.7 25.1H39.2C40 25.1 40.6 24.4 40.6 23.7V17.6C40.6 16.8 40 16.2 39.2 16.2H38.7C37.9 16.2 37.2 15.7 36.9 15L36 12.8C35.7 12.1 35.9 11.2 36.4 10.7L36.7 10.4C37.2 9.79999 37.2 8.99999 36.7 8.39999L32.4 4.09999C32.3 3.29999 31.4 3.29999 30.9 3.79999Z" fill="black"/>
<path d="M49.3999 11.4C49.3999 7.3 52.4999 4.5 56.4999 4.5C58.9999 4.5 60.7999 5.7 61.8999 7.1L59.7999 8.4C59.0999 7.4 57.8999 6.8 56.4999 6.8C53.8999 6.8 51.9999 8.7 51.9999 11.4C51.9999 14 53.8999 16 56.4999 16C57.8999 16 58.8999 15.4 59.4999 14.9V13H55.9999V10.8H62.1999V15.9C60.7999 17.4 58.8999 18.3 56.5999 18.3C52.4999 18.3 49.3999 15.5 49.3999 11.4Z" fill="black"/>
<path d="M67.6 4.79999H65V18H67.6V4.79999Z" fill="black"/>
<path d="M80.2999 18L73.4999 8.79999V18H70.8999V4.79999H73.6999L80.3999 13.7V4.79999H82.9999V18H80.2999Z" fill="black"/>
<path d="M94.5 18L90 12.5L88.9 13.8V18H86.2V4.79999H88.9V10.8L94.1 4.79999H97.3L91.7 11L97.7 18H94.5Z" fill="black"/>
<path d="M97.7 11.4C97.7 7.3 100.8 4.5 104.8 4.5C107.3 4.5 109.1 5.7 110.2 7.1L108.1 8.4C107.4 7.4 106.2 6.8 104.8 6.8C102.2 6.8 100.3 8.7 100.3 11.4C100.3 14 102.2 16 104.8 16C106.2 16 107.2 15.4 107.8 14.9V13H104.2V10.8H110.4V15.9C109 17.4 107.1 18.3 104.8 18.3C100.9 18.3 97.7 15.5 97.7 11.4Z" fill="black"/>
<path d="M123.9 11.4C123.9 8.8 122.2 6.8 119.6 6.8C117 6.8 115.3 8.8 115.3 11.4C115.3 14 117 16 119.6 16C122.2 16 123.9 14 123.9 11.4ZM112.6 11.4C112.6 7.5 115.4 4.5 119.6 4.5C123.8 4.5 126.6 7.4 126.6 11.4C126.6 15.4 123.8 18.3 119.6 18.3C115.4 18.3 112.6 15.3 112.6 11.4Z" fill="black"/>
<path d="M58.8 32.5C58.8 31.2 57.9 30 56 30H51.6V35H56C57.8 35 58.8 34.1 58.8 32.5ZM58.5 26.5C58.5 25.1 57.6002 24.2 55.9002 24.2H51.6V28.9H55.9002C57.6002 28.9 58.5 27.8 58.5 26.5ZM50.3 36.2V23H56C58.3 23 59.9002 24.3 59.9002 26.4C59.9002 28 58.8 29.1 57.6 29.4C59 29.8 60.1 31.1 60.1 32.6C60.1 34.8 58.6 36.2 56.1 36.2H50.3Z" fill="black"/>
<path d="M64.6 23H63.3V36.2H64.6V23Z" fill="black"/>
<path d="M79.8999 29.6C79.8999 26.3 77.7999 23.9 74.5999 23.9C71.2999 23.9 69.2999 26.3 69.2999 29.6C69.2999 32.8 71.3999 35.3 74.5999 35.3C77.7999 35.3 79.8999 32.9 79.8999 29.6ZM67.8999 29.6C67.8999 25.7 70.4999 22.7 74.5999 22.7C78.6999 22.7 81.2999 25.7 81.2999 29.6C81.2999 33.4 78.6999 36.5 74.5999 36.5C70.4999 36.5 67.8999 33.5 67.8999 29.6Z" fill="black"/>
<path d="M94.1 36.2L90.8 25.1L87.5 36.2H86.1L82.2 23H83.6L86.9 34.3L90.2 23H91.4L94.7 34.3L98 23H99.4L95.5 36.2H94.1Z" fill="black"/>
<path d="M112.4 29.6C112.4 26.3 110.3 23.9 107.1 23.9C103.8 23.9 101.8 26.3 101.8 29.6C101.8 32.8 103.9 35.3 107.1 35.3C110.3 35.3 112.4 32.9 112.4 29.6ZM100.4 29.6C100.4 25.7 103 22.7 107.1 22.7C111.2 22.7 113.8 25.7 113.8 29.6C113.8 33.4 111.2 36.5 107.1 36.5C103 36.5 100.4 33.5 100.4 29.6Z" fill="black"/>
<path d="M125.1 26.9C125.1 25.3 124 24.2 122.2 24.2H118.4V29.7H122.2C124.1 29.7 125.1 28.5 125.1 26.9ZM125 36.2L121.2 30.8H118.3V36.2H117V23H122.2C124.9 23 126.4 24.7 126.4 26.9C126.4 29.1 124.9 30.7 122.6 30.8L126.6 36.2H125Z" fill="black"/>
<path d="M138.2 36.2L132.6 30.1L131.1 31.6V36.2H129.8V23H131.1V30.1L137.6 23H139.3L133.4 29.3L139.9 36.2H138.2Z" fill="black"/>
<path d="M141.3 34.4L142.1 33.5C142.9 34.5 144.5 35.4 146.4 35.4C149 35.4 150 34.1 150 32.8C150 29 141.7 31.1 141.7 26.4C141.7 24.2 143.7 22.8 146.3 22.8C148.4 22.8 149.9 23.5 151 24.7L150.2 25.6C149.2 24.4 147.8 23.9 146.2 23.9C144.4 23.9 143 24.9 143 26.3C143 29.6 151.3 27.7 151.3 32.7C151.3 34.8 149.8 36.5 146.3 36.5C144.1 36.5 142.3 35.6 141.3 34.4Z" fill="black"/>
</g>
</g>
<defs>
<clipPath id="clip0_1_43">
<rect width="152" height="41" fill="white"/>
</clipPath>
</defs>
</svg>
