<svg width="1920" height="536" viewBox="0 0 1920 536" fill="none" xmlns="http://www.w3.org/2000/svg">
<path d="M1795.92 209.92H1808.97V158.029H1827.92V146.25H1776.98V158.029H1795.92V209.92ZM1834.12 209.92H1847.18V174.265L1861.5 209.92H1874.24L1888.56 174.265V209.92H1901.61V146.25H1887.13L1867.87 194.321L1848.61 146.25H1834.12V209.92Z" fill="black"/>
<path d="M768.071 308.689C768.071 251.761 810.258 206.177 869.527 206.177C904.1 206.177 925.091 217.934 937.233 226.597V267.643H936.409C923.033 257.536 901.836 247.223 875.083 247.223C840.921 247.223 815.403 267.231 815.403 308.689C815.403 350.148 840.921 370.981 875.083 370.981C903.482 370.981 924.679 359.636 937.644 348.911H938.467V390.369C926.737 399.651 906.775 412.027 869.115 412.027C810.67 412.027 768.071 368.093 768.071 308.689Z" fill="black"/>
<path d="M1088.91 212.365H1135.62V405.633H1099.4L1095.28 374.693C1084.79 392.638 1064.42 410.583 1033.55 410.583C986.42 410.583 960.902 376.756 960.902 326.016V212.572H1007.62V315.496C1007.62 357.367 1023.87 371.187 1046.1 371.187C1068.33 371.187 1088.7 353.655 1088.7 312.609V212.572L1088.91 212.365Z" fill="black"/>
<path d="M1364.05 306.419C1364.05 367.06 1325.15 410.994 1272.67 410.994C1240.16 410.994 1218.34 393.874 1207.44 374.692L1202.91 405.631H1166.69V145.329H1213.41V239.59C1225.14 221.233 1246.33 207.001 1275.14 207.001C1325.97 207.001 1364.05 248.872 1364.05 306.213V306.419ZM1316.92 309.307C1316.92 277.13 1298.6 247.016 1263.41 247.016C1228.22 247.016 1211.55 277.543 1211.55 308.894C1211.55 340.246 1229.46 371.185 1263.82 371.185C1298.19 371.185 1316.92 341.484 1316.92 309.307Z" fill="black"/>
<path d="M1364.05 306.417C1364.05 367.058 1325.15 410.992 1272.67 410.992C1240.16 410.992 1218.35 393.872 1207.44 374.69L1202.91 405.629H1166.69V145.327H1213.41V239.588C1225.14 221.231 1246.33 206.999 1275.14 206.999C1325.97 206.999 1364.05 248.87 1364.05 306.211V306.417ZM1316.92 309.305C1316.92 277.128 1298.6 247.014 1263.41 247.014C1228.22 247.014 1211.55 277.541 1211.55 308.892C1211.55 340.244 1229.46 371.184 1263.83 371.184C1298.19 371.184 1316.92 341.482 1316.92 309.305Z" fill="black"/>
<path d="M1378.45 151.311C1378.45 135.841 1390.59 124.084 1408.5 124.084C1426.4 124.084 1438.13 135.841 1438.13 151.311C1438.13 166.78 1425.58 178.537 1408.5 178.537C1391.42 178.537 1378.45 166.368 1378.45 151.311ZM1385.04 405.425V212.364H1431.75V405.632H1385.04V405.425Z" fill="black"/>
<path d="M1455.01 390.573V351.177H1455.83C1470.86 361.284 1494.73 373.041 1521.07 373.041C1542.88 373.041 1556.47 365.409 1556.47 352.209C1556.47 317.556 1456.66 334.676 1456.66 268.054C1456.66 230.926 1486.29 207.413 1530.12 207.413C1556.88 207.413 1578.07 216.694 1589.8 224.12V263.103H1588.98C1576.84 255.472 1558.11 246.809 1533.83 246.809C1512.63 246.809 1500.9 254.44 1500.9 266.404C1500.9 297.755 1600.71 281.873 1600.71 350.146C1600.71 389.954 1567.37 410.787 1527.24 410.787C1497.2 410.787 1470.86 399.855 1455.01 390.367V390.573Z" fill="black"/>
<path d="M1737.36 250.111H1681.38V328.697C1681.38 354.686 1684.67 370.568 1706.08 370.568C1716.16 370.568 1727.48 366.443 1733.24 363.555H1734.07V398.207C1727.48 403.57 1710.19 410.377 1689.82 410.377C1634.67 410.377 1634.67 360.668 1634.67 348.498V250.111H1601.74V212.365H1634.67V176.888L1680.56 145.124H1681.38V212.159H1737.36V249.905V250.111Z" fill="black"/>
<path d="M21 214.202V23H226.566L316.127 112.327V266.258H73.2647L21 214.202Z" fill="#84A7FA"/>
<path d="M611.379 318.314V509.516H405.813L316.127 420.189V266.258H559.114L611.379 318.314Z" fill="#ED643D"/>
<path d="M545.643 23H514.833H316.127V122.763L547.763 266.258H611.379V226.875V124.875V23H545.643Z" fill="#0F1B54"/>
<path d="M84.6157 266.258H21V305.641V407.641V509.516H86.6115H117.546H316.127V409.753L84.6157 266.258Z" fill="#E9B878"/>
</svg>
