<svg width="734" height="180" viewBox="0 0 734 180" fill="none" xmlns="http://www.w3.org/2000/svg">
<g clip-path="url(#clip0_1_11)">
<mask id="mask0_1_11" style="mask-type:luminance" maskUnits="userSpaceOnUse" x="0" y="0" width="734" height="180">
<path d="M734 0H0V180H734V0Z" fill="white"/>
</mask>
<g mask="url(#mask0_1_11)">
<path fill-rule="evenodd" clip-rule="evenodd" d="M607.36 66.3225C606.79 64.6825 605.91 63.1625 604.71 61.7725C603.51 60.3825 602.02 59.2125 600.26 58.2625C598.49 57.3225 596.4 56.8425 594 56.8425C592.74 56.8425 591.64 56.4325 590.69 55.6125C589.74 54.7925 589.27 53.6225 589.27 52.1125C589.27 48.1925 587.88 44.8425 585.1 42.0625C582.32 39.2925 578.98 37.9025 575.06 37.9025H537.18C533.26 37.9025 529.92 39.2825 527.14 42.0625C524.36 44.8425 522.97 48.1925 522.97 52.1125H522.98V71.0526C522.98 67.1425 521.58 63.7925 518.81 61.0125C516.03 58.2325 512.68 56.8425 508.77 56.8425C507.51 56.8425 506.4 56.4025 505.45 55.5225C504.51 54.6325 504.03 53.5025 504.03 52.1125C504.03 48.1925 502.64 44.8425 499.87 42.0625C497.09 39.2925 493.74 37.9025 489.83 37.9025H461.41C457.5 37.9025 454.16 39.2825 451.38 42.0625C448.6 44.8425 447.21 48.1925 447.21 52.1125C447.21 53.2425 446.76 54.3225 445.88 55.3325C445 56.3425 443.86 56.8425 442.47 56.8425C438.56 56.8425 435.21 58.2325 432.43 61.0125C429.65 63.7925 428.27 67.1425 428.27 71.0526V108.953C428.27 112.183 429.21 115.033 431.11 117.493C428.41 114.963 425.19 113.683 421.45 113.683H411.98C410.84 113.683 409.77 113.283 408.76 112.453C407.75 111.633 407.24 110.463 407.24 108.953V14.2125C407.24 10.3025 405.85 6.95255 403.07 4.17255C400.3 1.39255 396.95 0.00254636 393.04 0.00254636C389.13 0.00254636 385.78 1.39255 383 4.17255C380.22 6.95255 378.83 10.3025 378.83 14.2125V52.1125C378.83 48.1925 377.44 44.8425 374.66 42.0625C371.88 39.2925 368.54 37.9025 364.62 37.9025C360.7 37.9025 357.36 39.2825 354.58 42.0625C351.8 44.8425 350.42 48.1925 350.42 52.1125V108.953C350.42 110.343 349.97 111.483 349.09 112.363C348.21 113.243 347.07 113.683 345.68 113.683H317.27C315.88 113.683 314.74 113.243 313.86 112.363C312.98 111.483 312.53 110.343 312.53 108.953V52.1125C312.53 48.1925 311.14 44.8425 308.37 42.0625C305.59 39.2925 302.24 37.9025 298.33 37.9025C294.42 37.9025 291.07 39.2825 288.29 42.0625C285.51 44.8425 284.12 48.1925 284.12 52.1125V70.8225C284.07 67.0126 282.68 63.7325 279.96 61.0125C277.18 58.2325 273.83 56.8425 269.92 56.8425C268.53 56.8425 267.39 56.4025 266.51 55.5225C265.62 54.6325 265.18 53.5025 265.18 52.1025C265.18 48.1925 263.79 44.8425 261.01 42.0625C258.24 39.2925 254.89 37.8925 250.98 37.8925H222.56C221.43 37.8925 220.35 37.4925 219.34 36.6625C218.33 35.8425 217.83 34.6725 217.83 33.1625V14.2125C217.83 10.3025 216.44 6.95255 213.66 4.17255C210.88 1.39255 207.54 0.00254636 203.62 0.00254636C199.7 0.00254636 196.36 1.39255 193.58 4.17255C190.8 6.95255 189.42 10.3025 189.42 14.2125V71.0526C189.42 67.1425 188.02 63.7925 185.25 61.0125C182.47 58.2325 179.12 56.8425 175.21 56.8425C174.2 56.8425 173.15 56.4325 172.08 55.6125C171.01 54.7925 170.47 53.6225 170.47 52.1125C170.47 48.1925 169.08 44.8425 166.3 42.0625C163.53 39.2925 160.18 37.9025 156.26 37.9025H108.91C105 37.9025 101.65 39.2825 98.87 42.0625C96.09 44.8425 94.71 48.1925 94.71 52.1125C94.71 56.0325 96.1 59.3725 98.87 62.1525C101.65 64.9325 105 66.3225 108.91 66.3225H156.26C157.28 66.3225 158.32 66.7326 159.39 67.5526C160.46 68.3726 161 69.5425 161 71.0526C161 72.5725 160.46 73.7425 159.39 74.5625C158.32 75.3825 157.28 75.7925 156.26 75.7925H108.91C105 75.7925 101.65 77.1825 98.87 79.9625C96.13 82.7025 94.74 86.0126 94.71 89.8625V71.0526C94.71 67.1425 93.31 63.7925 90.54 61.0125C87.76 58.2325 84.41 56.8425 80.5 56.8425C79.11 56.8425 77.97 56.4025 77.09 55.5225C76.21 54.6325 75.77 53.5025 75.77 52.1025C75.77 48.1925 74.37 44.8425 71.6 42.0625C68.82 39.2925 65.47 37.8925 61.56 37.8925H33.15C32.01 37.8925 30.94 37.4925 29.93 36.6625C28.92 35.8425 28.41 34.6725 28.41 33.1625V14.2125C28.41 10.3025 27.02 6.95255 24.24 4.17255C21.47 1.39255 18.12 0.00254636 14.21 0.00254636C10.3 0.00254636 6.95 1.39255 4.17 4.17255C1.39 6.95255 0 10.3025 0 14.2125V127.903C0 131.813 1.39 135.163 4.17 137.943C6.94 140.723 10.29 142.113 14.21 142.113H61.56C65.47 142.113 68.82 140.713 71.6 137.943C74.37 135.163 75.77 131.813 75.77 127.903C75.77 126.383 76.27 125.213 77.28 124.393C78.29 123.573 79.36 123.163 80.5 123.163C84.41 123.163 87.76 121.773 90.54 118.993C93.32 116.213 94.71 112.863 94.71 108.953C94.71 112.863 96.1 116.213 98.88 118.993C101.65 121.773 105 123.163 108.91 123.163C110.05 123.163 111.12 123.603 112.13 124.493C113.14 125.373 113.65 126.513 113.65 127.903C113.65 131.813 115.04 135.163 117.82 137.943C120.59 140.723 123.94 142.113 127.85 142.113H175.21C179.12 142.113 182.47 140.723 185.25 137.943C188.03 135.163 189.42 131.813 189.42 127.903C189.42 131.813 190.81 135.163 193.58 137.943C196.36 140.723 199.71 142.113 203.62 142.113H250.98C254.89 142.113 258.24 140.713 261.01 137.943C263.79 135.163 265.18 131.813 265.18 127.903C265.18 126.383 265.69 125.213 266.7 124.393C267.71 123.573 268.78 123.163 269.92 123.163C273.83 123.163 277.18 121.773 279.96 118.993C282.69 116.253 284.08 112.963 284.12 109.113C284.16 112.963 285.55 116.253 288.29 118.993C291.06 121.773 294.41 123.163 298.33 123.163C299.72 123.163 300.85 123.633 301.74 124.583C302.62 125.533 303.06 126.643 303.06 127.903C303.06 131.813 304.45 135.163 307.23 137.943C310.01 140.723 313.35 142.113 317.27 142.113H345.68C347.07 142.113 348.21 142.553 349.09 143.433C349.97 144.323 350.42 145.453 350.42 146.843C350.42 148.233 349.97 149.373 349.09 150.253C348.21 151.143 347.07 151.583 345.68 151.583H298.33C294.41 151.583 291.06 152.973 288.29 155.753C285.51 158.523 284.12 161.883 284.12 165.793C284.12 169.703 285.51 173.063 288.29 175.833C291.06 178.613 294.41 180.003 298.33 180.003H345.68C349.59 180.003 352.94 178.613 355.72 175.833C358.5 173.053 359.89 169.703 359.89 165.793C359.89 164.533 360.33 163.423 361.21 162.483C362.09 161.533 363.23 161.053 364.62 161.053C368.53 161.053 371.88 159.663 374.66 156.893C377.44 154.113 378.83 150.763 378.83 146.843V108.953C378.83 112.863 380.22 116.213 383 118.993C385.77 121.773 389.12 123.163 393.04 123.163C394.17 123.163 395.24 123.573 396.26 124.393C397.26 125.213 397.77 126.383 397.77 127.903C397.77 131.813 399.16 135.163 401.94 137.943C404.71 140.723 408.06 142.113 411.98 142.113H421.45C425.36 142.113 428.71 140.713 431.48 137.943C434.26 135.163 435.65 131.813 435.65 127.903C435.65 124.663 434.7 121.813 432.8 119.353C435.5 121.893 438.73 123.163 442.47 123.163C443.86 123.163 445 123.603 445.88 124.493C446.76 125.373 447.21 126.513 447.21 127.903C447.21 131.813 448.6 135.163 451.38 137.943C454.15 140.723 457.5 142.113 461.41 142.113H489.83C493.74 142.113 497.09 140.713 499.87 137.943C502.64 135.163 504.03 131.813 504.03 127.903C504.03 126.893 504.44 125.843 505.27 124.773C506.08 123.703 507.25 123.163 508.77 123.163C512.68 123.163 516.03 121.773 518.81 118.993C521.59 116.213 522.98 112.863 522.98 108.953V127.903C522.98 131.813 524.36 135.163 527.14 137.943C529.92 140.723 533.27 142.113 537.18 142.113C541.09 142.113 544.44 140.713 547.22 137.943C550 135.163 551.39 131.813 551.39 127.903V71.0526C551.39 69.7925 551.83 68.6825 552.71 67.7425C553.6 66.7925 554.73 66.3225 556.12 66.3225H575.06C576.2 66.3225 577.27 66.7626 578.28 67.6425C579.29 68.5325 579.8 69.6626 579.8 71.0526V127.903C579.8 131.813 581.19 135.163 583.97 137.943C586.74 140.723 590.09 142.113 594 142.113C597.91 142.113 601.27 140.713 604.04 137.943C606.82 135.163 608.21 131.813 608.21 127.903V71.0526C608.21 69.5425 607.93 67.9625 607.36 66.3225ZM66.29 108.953C66.29 110.593 65.79 111.793 64.78 112.553C63.77 113.313 62.7 113.683 61.56 113.683H33.15C31.88 113.683 30.78 113.243 29.83 112.363C28.89 111.483 28.41 110.343 28.41 108.953V71.0526C28.41 69.9226 28.85 68.8426 29.74 67.8326C30.62 66.8225 31.76 66.3225 33.15 66.3225H61.56C62.95 66.3225 64.08 66.7925 64.97 67.7425C65.85 68.6825 66.29 69.7925 66.29 71.0526V108.953ZM159.49 112.363C158.47 113.243 157.4 113.683 156.26 113.683H127.85C126.72 113.683 125.64 113.243 124.63 112.363C123.62 111.483 123.12 110.343 123.12 108.953C123.12 107.813 123.56 106.743 124.44 105.733C125.33 104.723 126.46 104.213 127.85 104.213H156.26C157.65 104.213 158.79 104.723 159.67 105.733C160.56 106.743 161 107.813 161 108.953C161 110.343 160.49 111.483 159.49 112.363ZM255.71 108.953C255.71 110.593 255.2 111.793 254.2 112.553C253.18 113.313 252.11 113.683 250.98 113.683H222.57C221.3 113.683 220.2 113.243 219.25 112.363C218.3 111.483 217.83 110.343 217.83 108.953V71.0526C217.83 69.9226 218.27 68.8426 219.15 67.8326C220.04 66.8225 221.17 66.3225 222.56 66.3225H250.98C252.36 66.3225 253.5 66.7925 254.39 67.7425C255.27 68.6825 255.71 69.7925 255.71 71.0526V108.953ZM494.56 108.953C494.56 110.593 494.05 111.793 493.05 112.553C492.03 113.313 490.96 113.683 489.83 113.683H461.42C460.15 113.683 459.05 113.243 458.1 112.363C457.15 111.483 456.68 110.343 456.68 108.953V71.0526C456.68 69.9226 457.12 68.8525 458.01 67.8326C458.89 66.8225 460.02 66.3225 461.41 66.3225H489.83C491.21 66.3225 492.35 66.7925 493.24 67.7425C494.12 68.6825 494.56 69.7925 494.56 71.0526V108.953ZM637.147 17.8125C636.675 16.5345 636.99 15.0995 637.953 14.1355L651.065 1.02255C652.028 0.0595462 653.464 -0.255453 654.741 0.215547L682.698 10.4865C683.385 10.7385 683.841 11.3925 683.841 12.1245V18.2455C683.841 18.7085 683.657 19.1525 683.33 19.4795L676.525 26.2845C676.044 26.7655 675.326 26.9235 674.687 26.6875L667.177 23.9175L658.925 20.8725C658.227 20.6145 657.547 21.2945 657.805 21.9935L663.619 37.7565C663.855 38.3955 663.698 39.1135 663.216 39.5945L657.166 45.6425C656.485 46.3245 656.485 47.4295 657.166 48.1105L663.248 54.1925C663.73 54.6735 663.887 55.3915 663.651 56.0305L657.837 71.7915C657.579 72.4905 658.259 73.1706 658.957 72.9126L674.719 67.0975C675.358 66.8615 676.076 67.0195 676.557 67.5005L683.33 74.2736C683.657 74.6006 683.841 75.0446 683.841 75.5076V81.6305C683.841 82.3615 683.386 83.0155 682.7 83.2675L654.775 93.5695C653.497 94.0406 652.061 93.7265 651.098 92.7626L637.985 79.6496C637.022 78.6866 636.707 77.2505 637.179 75.9725L647.446 48.1415C647.733 47.3615 647.733 46.5045 647.446 45.7255L637.147 17.8075V17.8125ZM733.444 75.9775C733.916 77.2555 733.601 78.6906 732.638 79.6545L719.526 92.7675C718.563 93.7305 717.128 94.0455 715.85 93.5745L687.893 83.3036C687.206 83.0516 686.75 82.3976 686.75 81.6656V75.5445C686.75 75.0816 686.934 74.6376 687.261 74.3105L694.066 67.5055C694.547 67.0235 695.265 66.8665 695.904 67.1025L703.414 69.8726L711.666 72.9175C712.364 73.1756 713.044 72.4955 712.786 71.7965L706.972 56.0335C706.736 55.3945 706.893 54.6765 707.375 54.1955L713.425 48.1475C714.106 47.4655 714.106 46.3605 713.425 45.6795L707.343 39.5975C706.861 39.1155 706.704 38.3985 706.94 37.7595L712.754 21.9985C713.012 21.2995 712.332 20.6195 711.634 20.8775L695.872 26.6925C695.233 26.9285 694.515 26.7705 694.034 26.2895L687.261 19.5165C686.934 19.1895 686.75 18.7455 686.75 18.2825V12.1595C686.75 11.4285 687.205 10.7755 687.891 10.5225L715.816 0.216547C717.094 -0.254453 718.529 0.0595464 719.493 1.02355L732.605 14.1365C733.569 15.0995 733.884 16.5355 733.412 17.8135L723.145 45.6435C722.857 46.4235 722.857 47.2805 723.145 48.0595L733.444 75.9775Z" fill="black"/>
</g>
</g>
<defs>
<clipPath id="clip0_1_11">
<rect width="734" height="180" fill="white"/>
</clipPath>
</defs>
</svg>
