<svg width="170" height="40" viewBox="0 0 170 40" fill="none" xmlns="http://www.w3.org/2000/svg">
<g clip-path="url(#clip0_1_8)">
<mask id="mask0_1_8" style="mask-type:luminance" maskUnits="userSpaceOnUse" x="0" y="0" width="170" height="40">
<path d="M170 0H0V40H170V0Z" fill="white"/>
</mask>
<g mask="url(#mask0_1_8)">
<mask id="mask1_1_8" style="mask-type:luminance" maskUnits="userSpaceOnUse" x="0" y="0" width="170" height="40">
<path d="M0.0179443 0H169.492V40H0.0179443V0Z" fill="white"/>
</mask>
<g mask="url(#mask1_1_8)">
<path d="M51.5829 16.842L63.8629 4.632L59.2049 0L49.2539 9.894L39.3029 0L34.6429 4.632L46.9239 16.842C47.5679 17.482 48.4109 17.802 49.2539 17.802C50.0969 17.802 50.9399 17.482 51.5829 16.842ZM69.3609 29.885L59.4099 19.992L69.3599 10.098L64.702 5.466L52.4219 17.676C52.1162 17.9792 51.8735 18.34 51.7079 18.7375C51.5423 19.135 51.457 19.5614 51.457 19.992C51.457 20.4226 51.5423 20.849 51.7079 21.2465C51.8735 21.644 52.1162 22.0048 52.4219 22.308L64.702 34.518L69.3609 29.885ZM49.2369 30.106L59.1869 40L63.8469 35.368L51.5659 23.158C50.9463 22.5435 50.109 22.1987 49.2364 22.1987C48.3638 22.1987 47.5265 22.5435 46.9069 23.158L34.6269 35.368L39.2849 40L49.2369 30.106ZM46.0689 22.324C46.374 22.0205 46.6161 21.6597 46.7813 21.2623C46.9465 20.865 47.0316 20.4388 47.0316 20.0085C47.0316 19.5782 46.9465 19.152 46.7813 18.7547C46.6161 18.3573 46.374 17.9965 46.0689 17.693L33.7889 5.483L29.1289 10.115L39.0809 20.008L29.1299 29.902L33.7879 34.534L46.0689 22.324ZM28.9639 38.394H18.6359L17.8929 33.724H11.1599L10.3449 38.394H0.0179443L8.90794 1.607H21.1279L28.9639 38.394ZM16.7189 25.837L16.0719 21.548C16.0549 21.533 16.0239 21.318 15.9759 20.904C15.9449 20.556 15.7759 19.174 15.4729 16.76C15.4409 16.49 15.4009 16.12 15.3529 15.652C15.3049 15.182 15.2409 14.59 15.1619 13.875L14.8489 10.398C14.8189 10.732 14.7739 11.105 14.7179 11.518C14.6619 11.931 14.6019 12.383 14.5379 12.876C14.4614 13.5597 14.3814 14.2431 14.2979 14.926C14.2499 15.305 14.2189 15.536 14.2029 15.616L13.5079 20.07L12.5019 25.837H16.7189ZM90.6869 38.392V29.554H82.1089V23.93H89.799V15.617H82.1089V10.257H90.6869V1.607H72.1169V38.392H90.6869ZM110.34 29.554H102.84V1.607H92.8479V38.393H110.34V29.554ZM141.023 38.393H130.697L129.953 33.723H123.22L122.405 38.393H112.077L120.967 1.606H133.188L141.023 38.392V38.393ZM128.78 25.838L128.132 21.549C128.115 21.534 128.084 21.319 128.036 20.905C128.005 20.557 127.836 19.175 127.533 16.761C127.5 16.491 127.462 16.121 127.413 15.653C127.365 15.183 127.301 14.591 127.223 13.876L126.909 10.4C126.878 10.733 126.834 11.106 126.778 11.52C126.722 11.932 126.662 12.384 126.598 12.878C126.486 13.862 126.406 14.545 126.358 14.926C126.31 15.306 126.279 15.537 126.264 15.617L125.568 20.071L124.561 25.838H128.78ZM169.491 38.394H158.685L153.75 25.29C153.68 24.992 153.595 24.6976 153.496 24.408C153.352 23.9702 153.205 23.5335 153.054 23.098L153.125 25.528V38.394H143.181V1.607H153.413C157.918 1.607 161.288 2.489 163.526 4.253C166.368 6.508 167.79 9.717 167.79 13.876C167.79 18.325 165.881 21.399 162.063 23.098L169.491 38.394ZM157.87 13.996C157.87 11.249 156.424 9.876 153.533 9.876H153.173V18.642H153.844C154.994 18.642 155.953 18.206 156.72 17.332C157.487 16.459 157.87 15.347 157.87 13.996Z" fill="black"/>
</g>
</g>
</g>
<defs>
<clipPath id="clip0_1_8">
<rect width="170" height="40" fill="white"/>
</clipPath>
</defs>
</svg>
