<svg width="1039" height="234" viewBox="0 0 1039 234" fill="none" xmlns="http://www.w3.org/2000/svg">
<mask id="mask0_1_31" style="mask-type:luminance" maskUnits="userSpaceOnUse" x="0" y="0" width="1039" height="234">
<path d="M1038.38 0H0V234H1038.38V0Z" fill="white"/>
</mask>
<g mask="url(#mask0_1_31)">
<path d="M217.819 16.1818H0V234.001H217.819V16.1818Z" fill="#625EFF" fill-opacity="0.2"/>
<path d="M234.005 0H16.1865V217.819H234.005V0Z" fill="#625EFF"/>
<path d="M98.5881 135.413C96.9608 133.786 94.3215 133.786 92.6942 135.413L48.5231 179.586C46.896 181.213 46.896 183.853 48.5231 185.48C49.3355 186.293 50.4036 186.7 51.4703 186.7C52.5364 186.7 53.6026 186.293 54.4172 185.48L98.5881 141.298C100.215 139.671 100.215 137.035 98.5881 135.413Z" fill="white"/>
<path d="M61.7866 148.664L91.1356 119.316C92.7623 117.688 92.7623 115.048 91.1356 113.422C89.5083 111.794 86.8777 111.794 85.2509 113.422L55.902 142.77C54.2752 144.397 54.2752 147.037 55.902 148.664C56.7146 149.477 57.7793 149.884 58.8455 149.884C59.9117 149.884 60.9739 149.477 61.7866 148.664Z" fill="white"/>
<path d="M114.682 142.872L85.3329 172.229C83.7061 173.851 83.7061 176.491 85.3329 178.114C86.1455 178.927 87.2102 179.334 88.2764 179.334C89.3426 179.334 90.4034 178.927 91.2175 178.114L120.576 148.765C122.203 147.138 122.203 144.498 120.576 142.872C118.948 141.244 116.307 141.244 114.682 142.872Z" fill="white"/>
<path d="M120.814 50.4163L133.913 99.3662C134.135 100.192 134.57 100.946 135.175 101.551C135.78 102.157 136.534 102.591 137.36 102.813L186.31 115.912C187.131 116.132 187.997 116.134 188.819 115.916C189.641 115.698 190.393 115.269 190.998 114.671C191.608 114.066 192.047 113.311 192.271 112.481C192.495 111.652 192.496 110.779 192.273 109.949L179.14 61.0336C178.918 60.2072 178.483 59.4536 177.878 58.8481C177.273 58.2431 176.519 57.8083 175.693 57.5864L126.777 44.4529C125.948 44.2306 125.074 44.2314 124.245 44.4554C123.415 44.6794 122.66 45.1185 122.055 45.7284C121.457 46.3336 121.028 47.0847 120.81 47.9072C120.592 48.7296 120.594 49.5949 120.814 50.4163ZM170.315 66.4112L180.656 104.33L142.738 93.9886L132.396 56.0698L170.315 66.4112ZM174.899 120.428L128.949 107.777L116.436 61.6888C116.27 61.0672 115.984 60.4846 115.592 59.9747C115.201 59.4648 114.712 59.0372 114.155 58.717C113.597 58.3962 112.982 58.1895 112.343 58.1081C111.706 58.0262 111.058 58.0715 110.438 58.2416C109.197 58.5834 108.142 59.4029 107.503 60.5197C106.863 61.6371 106.691 62.9616 107.025 64.2052L120.124 113.155C120.346 113.981 120.781 114.735 121.386 115.34C121.991 115.945 122.745 116.38 123.572 116.602L172.521 129.701C173.764 130.035 175.089 129.863 176.206 129.224C177.323 128.584 178.142 127.529 178.485 126.288C178.655 125.668 178.7 125.02 178.618 124.382C178.537 123.745 178.33 123.129 178.009 122.572C177.689 122.014 177.261 121.525 176.752 121.134C176.242 120.743 175.659 120.455 175.037 120.29L174.899 120.428ZM161.111 134.217L115.161 121.565L102.648 75.4772C102.482 74.8556 102.195 74.2736 101.804 73.7632C101.412 73.2532 100.923 72.8257 100.366 72.5054C99.8084 72.1851 99.1932 71.9779 98.555 71.8965C97.9174 71.8151 97.2695 71.8604 96.6494 72.0301C95.4087 72.3723 94.3533 73.1913 93.7137 74.3087C93.0746 75.4255 92.903 76.7506 93.2369 77.9937L106.336 126.943C106.557 127.77 106.993 128.524 107.598 129.129C108.203 129.734 108.956 130.169 109.783 130.39L158.733 143.489C159.976 143.823 161.301 143.652 162.418 143.012C163.535 142.373 164.354 141.317 164.696 140.077C164.866 139.457 164.911 138.809 164.83 138.171C164.748 137.533 164.541 136.918 164.221 136.36C163.901 135.803 163.473 135.314 162.963 134.922C162.453 134.531 161.87 134.244 161.249 134.079L161.111 134.217Z" fill="white"/>
<path d="M322.483 175.5V54.9545H347.97V154.487H399.649V175.5H322.483ZM441.837 177.207C436.068 177.207 430.928 176.206 426.415 174.205C421.903 172.165 418.332 169.163 415.703 165.2C413.113 161.197 411.818 156.214 411.818 150.249C411.818 145.226 412.74 141.008 414.585 137.594C416.429 134.18 418.94 131.433 422.118 129.354C425.297 127.274 428.907 125.704 432.949 124.645C437.03 123.586 441.307 122.84 445.78 122.408C451.038 121.859 455.277 121.349 458.494 120.878C461.712 120.368 464.047 119.622 465.499 118.641C466.95 117.66 467.676 116.208 467.676 114.286V113.932C467.676 110.205 466.499 107.32 464.145 105.28C461.83 103.239 458.533 102.219 454.256 102.219C449.744 102.219 446.153 103.22 443.485 105.221C440.816 107.183 439.051 109.655 438.187 112.637L414.997 110.754C416.174 105.261 418.489 100.512 421.942 96.5099C425.395 92.4681 429.849 89.3681 435.303 87.2099C440.797 85.0123 447.154 83.9139 454.374 83.9139C459.397 83.9139 464.204 84.5023 468.795 85.6796C473.425 86.857 477.526 88.6817 481.097 91.1538C484.707 93.6259 487.549 96.8039 489.631 100.689C491.712 104.534 492.751 109.145 492.751 114.521V175.5H468.971V162.963H468.265C466.813 165.788 464.871 168.28 462.438 170.438C460.005 172.557 457.081 174.225 453.667 175.441C450.253 176.618 446.31 177.207 441.837 177.207ZM449.018 159.902C452.706 159.902 455.963 159.176 458.789 157.724C461.614 156.233 463.831 154.232 465.44 151.721C467.048 149.209 467.853 146.364 467.853 143.186V133.592C467.068 134.102 465.989 134.572 464.616 135.004C463.281 135.397 461.771 135.769 460.083 136.123C458.396 136.437 456.708 136.731 455.021 137.006C453.334 137.241 451.804 137.457 450.43 137.653C447.487 138.084 444.917 138.771 442.72 139.713C440.522 140.655 438.815 141.93 437.599 143.539C436.382 145.109 435.774 147.071 435.774 149.425C435.774 152.839 437.01 155.448 439.482 157.253C441.994 159.019 445.172 159.902 449.018 159.902ZM537.279 123.232V175.5H512.202V85.0907H536.099V101.042H537.162C539.161 95.7841 542.515 91.6242 547.224 88.5637C551.933 85.4637 557.642 83.9139 564.355 83.9139C570.634 83.9139 576.108 85.2872 580.774 88.0338C585.444 90.7808 589.076 94.7047 591.665 99.8059C594.253 104.868 595.55 110.911 595.55 117.935V175.5H570.478V122.408C570.517 116.875 569.103 112.559 566.237 109.459C563.375 106.32 559.431 104.75 554.405 104.75C551.031 104.75 548.048 105.476 545.459 106.928C542.91 108.38 540.906 110.499 539.458 113.285C538.044 116.032 537.318 119.347 537.279 123.232ZM656.161 177.266C646.898 177.266 638.933 175.304 632.264 171.38C625.634 167.417 620.529 161.923 616.961 154.899C613.427 147.875 611.662 139.792 611.662 130.649C611.662 121.388 613.446 113.265 617.019 106.28C620.627 99.2565 625.751 93.7829 632.381 89.8585C639.015 85.8956 646.898 83.9139 656.044 83.9139C663.932 83.9139 670.835 85.3462 676.763 88.2107C682.686 91.0753 687.375 95.0972 690.832 100.277C694.283 105.457 696.185 111.539 696.54 118.523H672.877C672.209 114.011 670.445 110.381 667.578 107.634C664.755 104.848 661.046 103.455 656.453 103.455C652.573 103.455 649.175 104.515 646.274 106.634C643.408 108.714 641.17 111.755 639.561 115.757C637.953 119.76 637.148 124.606 637.148 130.296C637.148 136.064 637.933 140.969 639.503 145.01C641.112 149.052 643.369 152.133 646.274 154.251C649.175 156.371 652.573 157.43 656.453 157.43C659.32 157.43 661.889 156.841 664.166 155.664C666.481 154.487 668.382 152.78 669.874 150.543C671.405 148.267 672.404 145.54 672.877 142.362H696.54C696.146 149.268 694.264 155.35 690.89 160.608C687.551 165.828 682.944 169.908 677.055 172.851C671.171 175.794 664.205 177.266 656.161 177.266ZM753.797 177.266C744.496 177.266 736.491 175.383 729.778 171.615C723.109 167.809 717.971 162.433 714.359 155.488C710.751 148.503 708.942 140.243 708.942 130.708C708.942 121.408 710.751 113.246 714.359 106.222C717.971 99.1975 723.051 93.7239 729.603 89.8C736.194 85.8756 743.925 83.9139 752.793 83.9139C758.76 83.9139 764.313 84.8753 769.451 86.798C774.633 88.6817 779.142 91.5262 782.989 95.3326C786.874 99.139 789.897 103.926 792.056 109.694C794.211 115.423 795.293 122.133 795.293 129.825V136.711H718.951V121.172H771.689C771.689 117.562 770.904 114.364 769.334 111.578C767.764 108.792 765.585 106.614 762.801 105.045C760.052 103.436 756.854 102.631 753.207 102.631C749.4 102.631 746.027 103.514 743.082 105.28C740.177 107.006 737.905 109.341 736.257 112.284C734.604 115.188 733.761 118.426 733.722 121.996V136.77C733.722 141.243 734.546 145.109 736.194 148.365C737.885 151.622 740.259 154.134 743.316 155.9C746.378 157.665 750.009 158.548 754.207 158.548C756.995 158.548 759.545 158.156 761.861 157.371C764.176 156.587 766.155 155.409 767.803 153.839C769.451 152.27 770.709 150.347 771.572 148.071L794.762 149.602C793.582 155.174 791.169 160.039 787.523 164.199C783.91 168.319 779.24 171.537 773.512 173.852C767.823 176.128 761.251 177.266 753.797 177.266ZM854.856 175.5H812.127V54.9545H855.212C867.336 54.9545 877.773 57.3681 886.524 62.1943C895.275 66.9816 902.007 73.8685 906.711 82.8541C911.46 91.8402 913.834 102.592 913.834 115.11C913.834 127.667 911.46 138.457 906.711 147.482C902.007 156.508 895.236 163.434 886.407 168.26C877.617 173.087 867.102 175.5 854.856 175.5ZM837.613 153.663H853.798C861.335 153.663 867.668 152.329 872.811 149.661C877.988 146.953 881.873 142.774 884.467 137.123C887.094 131.433 888.406 124.096 888.406 115.11C888.406 106.202 887.094 98.9231 884.467 93.2724C881.873 87.6218 878.007 83.4625 872.869 80.7944C867.731 78.1258 861.393 76.7915 853.857 76.7915H837.613V153.663ZM932.715 175.5V54.9545H980.982C989.85 54.9545 997.245 56.2693 1003.17 58.8983C1009.1 61.5274 1013.55 65.1769 1016.53 69.8461C1019.51 74.4764 1021.01 79.8131 1021.01 85.8561C1021.01 90.5649 1020.06 94.7047 1018.18 98.2757C1016.3 101.807 1013.71 104.711 1010.41 106.987C1007.16 109.223 1003.43 110.813 999.229 111.755V112.932C1003.82 113.128 1008.12 114.423 1012.12 116.817C1016.16 119.21 1019.44 122.565 1021.95 126.882C1024.46 131.159 1025.72 136.26 1025.72 142.185C1025.72 148.581 1024.13 154.291 1020.95 159.314C1017.81 164.297 1013.16 168.241 1007 171.144C1000.84 174.048 993.243 175.5 984.219 175.5H932.715ZM958.201 154.664H978.978C986.081 154.664 991.263 153.31 994.52 150.602C997.776 147.855 999.405 144.206 999.405 139.654C999.405 136.319 998.6 133.376 996.992 130.825C995.383 128.274 993.087 126.273 990.103 124.822C987.159 123.37 983.649 122.644 979.568 122.644H958.201V154.664ZM958.201 105.398H977.097C980.587 105.398 983.688 104.79 986.393 103.573C989.143 102.318 991.302 100.551 992.872 98.2757C994.481 95.9995 995.285 93.2725 995.285 90.094C995.285 85.7386 993.735 82.2267 990.635 79.5581C987.573 76.89 983.215 75.5557 977.565 75.5557H958.201V105.398Z" fill="black"/>
</g>
</svg>
