<svg width="131" height="43" viewBox="0 0 131 43" fill="none" xmlns="http://www.w3.org/2000/svg">
<g clip-path="url(#clip0_1_2)">
<path d="M31.726 25.965C31.7289 27.3788 31.4516 28.7791 30.91 30.085C30.3705 31.3911 29.5779 32.5775 28.578 33.576C27.5789 34.5762 26.3918 35.3687 25.085 35.908C23.7823 36.4489 22.3855 36.7269 20.975 36.726H20.923C18.653 36.726 16.4 35.986 14.574 34.641C13.2204 33.6359 12.1206 32.3284 11.3622 30.8227C10.6038 29.317 10.2079 27.6549 10.206 25.969V18.035C10.2053 17.6632 10.2784 17.2949 10.4208 16.9515C10.5633 16.608 10.7724 16.2962 11.036 16.034C11.2984 15.7713 11.6101 15.5629 11.9532 15.4207C12.2963 15.2786 12.6641 15.2056 13.0354 15.2057C13.4068 15.2059 13.7745 15.2794 14.1174 15.4218C14.4603 15.5643 14.7718 15.773 15.034 16.036C15.567 16.57 15.862 17.28 15.864 18.034V25.966C15.8627 26.6365 15.9946 27.3006 16.2519 27.9198C16.5092 28.539 16.8869 29.1009 17.363 29.573C18.0759 30.2855 18.9849 30.7694 19.974 30.963C20.965 31.16 21.984 31.059 22.919 30.673C23.8508 30.2879 24.6472 29.6346 25.207 28.796C25.771 27.956 26.07 26.978 26.072 25.966V10.102C26.0713 9.73049 26.1441 9.36251 26.2862 9.01926C26.4283 8.67601 26.6369 8.36427 26.9 8.102C27.2288 7.77345 27.6336 7.53103 28.0784 7.39618C28.5233 7.26133 28.9945 7.23822 29.4504 7.32889C29.9063 7.41956 30.3329 7.62121 30.6923 7.916C31.0517 8.21079 31.3329 8.58963 31.511 9.019C31.654 9.364 31.726 9.729 31.726 10.102V25.965ZM9.429 14.425C8.95349 14.8979 8.57637 15.4603 8.31943 16.0797C8.06248 16.6992 7.93081 17.3634 7.932 18.034V33.897C7.93294 34.2686 7.86015 34.6367 7.71785 34.98C7.57555 35.3233 7.36657 35.635 7.103 35.897C6.035 36.967 4.171 36.967 3.102 35.897C2.83875 35.6348 2.63004 35.3231 2.48793 34.9798C2.34581 34.6366 2.2731 34.2685 2.274 33.897V18.035C2.27622 15.4552 3.20453 12.962 4.89 11.009C5.88469 9.85805 7.11198 8.93094 8.491 8.28875C9.87001 7.64657 11.3695 7.30389 12.8905 7.28329C14.4116 7.2627 15.9198 7.56465 17.3157 8.16926C18.7116 8.77387 19.9635 9.66741 20.989 10.791L21.005 10.772L21.02 10.829C22.083 12.0035 22.8732 13.3984 23.334 14.914L23.378 15.059C23.659 16.027 23.801 17.028 23.802 18.034V25.965C23.8014 26.524 23.6354 27.0703 23.3248 27.5351C23.0143 27.9999 22.5732 28.3624 22.057 28.577C21.72 28.717 21.364 28.783 21.005 28.787V28.792C20.991 28.792 20.978 28.788 20.964 28.788C20.784 28.788 20.603 28.776 20.423 28.74C20.3197 28.7182 20.2179 28.6901 20.118 28.656V28.642C20.05 28.62 19.98 28.609 19.914 28.582C19.3977 28.3674 18.9564 28.0047 18.6459 27.5397C18.3353 27.0747 18.1694 26.5282 18.169 25.969V18.786H18.167V18.033C18.1658 17.0204 17.8636 16.0311 17.2988 15.1906C16.734 14.3502 15.9321 13.6967 14.995 13.313C14.375 13.0529 13.7083 12.9225 13.036 12.93C12.3658 12.929 11.702 13.0607 11.083 13.3174C10.4639 13.5742 9.90176 13.9499 9.429 14.425ZM32.503 6.497C32.0304 6.02223 31.4686 5.64563 30.8499 5.38888C30.2312 5.13213 29.5679 5.00031 28.898 5.001H28.896C28.2264 5.00128 27.5634 5.13396 26.9452 5.39138C26.3271 5.64881 25.7659 6.02591 25.294 6.501C24.8204 6.97356 24.4447 7.53503 24.1887 8.15317C23.9327 8.7713 23.8012 9.43393 23.802 10.103V10.676C22.1777 8.30429 19.8159 6.5352 17.0831 5.64338C14.3503 4.75157 11.3996 4.78694 8.689 5.744C6.14689 6.64085 3.94685 8.30652 2.394 10.51C0.834415 12.7087 -0.00226967 15.3383 4.62425e-06 18.034V33.897C4.62425e-06 35.26 0.531005 36.541 1.495 37.505C1.9676 37.9805 2.52985 38.3575 3.14918 38.6141C3.76851 38.8707 4.43261 39.0019 5.103 39C5.77337 39.0017 6.43742 38.8705 7.05673 38.6138C7.67604 38.3572 8.23831 37.9803 8.71101 37.505C9.1864 37.0323 9.56331 36.4701 9.81993 35.8508C10.0765 35.2314 10.2078 34.5674 10.206 33.897V33.328C11.8312 35.6973 14.1924 37.4644 16.9239 38.3553C19.6553 39.2463 22.6044 39.2114 25.314 38.256C27.8554 37.3589 30.0548 35.6932 31.607 33.49C33.1654 31.2923 34.0017 28.6642 34 25.97V10.101C34.0005 9.43108 33.8685 8.76767 33.6116 8.14897C33.3547 7.53028 32.9779 6.9685 32.503 6.496V6.497Z" fill="url(#paint0_linear_1_2)"/>
<path d="M45.153 33V10.171H49.957L59.4 26.766H59.46V10.17H63.692V33H58.978L49.446 16.405H49.386V33H45.153ZM75.106 33.557C73.9119 33.5591 72.7292 33.3235 71.627 32.864C70.5522 32.4283 69.5746 31.7835 68.751 30.967C67.9808 30.2 67.3447 29.3093 66.869 28.332C66.2788 27.1169 65.9747 25.7828 65.98 24.432C65.98 22.845 66.382 21.335 67.185 19.899C67.9738 18.4778 69.1483 17.3085 70.573 16.526C72.019 15.713 73.53 15.306 75.106 15.306C76.692 15.306 78.203 15.708 79.638 16.511C81.0462 17.2866 82.2054 18.4459 82.981 19.854C83.7719 21.2603 84.1821 22.8486 84.171 24.462C84.1789 25.5929 83.98 26.7157 83.584 27.775C83.2263 28.7582 82.69 29.6668 82.002 30.455C81.34 31.218 80.647 31.81 79.924 32.232C79.1977 32.6595 78.4179 32.9887 77.605 33.211C76.7912 33.4391 75.9512 33.5555 75.106 33.557ZM75.106 29.792C76.541 29.792 77.726 29.265 78.659 28.212C79.603 27.157 80.075 25.912 80.075 24.477C80.075 23.513 79.845 22.605 79.382 21.751C78.92 20.888 78.293 20.225 77.5 19.763C76.717 19.292 75.924 19.056 75.12 19.056C74.328 19.056 73.52 19.286 72.696 19.748C71.887 20.2058 71.2202 20.8782 70.769 21.691C70.307 22.524 70.076 23.448 70.076 24.461C70.076 25.456 70.307 26.369 70.769 27.202C71.231 28.036 71.853 28.678 72.636 29.13C73.429 29.572 74.252 29.792 75.106 29.792ZM85.798 33V10.171H89.894V17.429C91.39 16.014 93.177 15.306 95.254 15.306C96.761 15.306 98.181 15.698 99.516 16.481C100.852 17.254 101.906 18.368 102.679 19.824C103.452 21.279 103.838 22.785 103.838 24.341C103.838 25.827 103.477 27.333 102.754 28.859C102.041 30.375 101.032 31.539 99.727 32.352C98.432 33.156 96.941 33.557 95.255 33.557C94.03 33.557 92.975 33.351 92.092 32.94C91.219 32.518 90.376 31.85 89.562 30.937V33H85.798ZM89.653 24.206C89.653 25.963 90.17 27.333 91.204 28.316C92.248 29.301 93.453 29.793 94.818 29.793C96.203 29.793 97.368 29.296 98.312 28.302C99.265 27.308 99.742 26.012 99.742 24.417C99.742 22.84 99.255 21.555 98.282 20.562C97.318 19.558 96.133 19.056 94.728 19.056C93.8215 19.0539 92.9314 19.2983 92.153 19.763C91.3629 20.2209 90.72 20.895 90.3 21.706C89.869 22.519 89.653 23.352 89.653 24.206ZM105.766 33V10.171H109.862V33H105.766ZM129.439 26.284H116.157C116.569 27.438 117.181 28.312 117.995 28.904C118.818 29.496 119.812 29.793 120.976 29.793C121.89 29.793 122.653 29.612 123.265 29.25C123.877 28.879 124.394 28.332 124.816 27.609H129.138C128.857 28.392 128.546 29.045 128.204 29.567C127.667 30.3551 127.018 31.0603 126.277 31.66C125.55 32.2632 124.725 32.7367 123.837 33.06C122.964 33.391 121.935 33.557 120.75 33.557C117.889 33.557 115.595 32.493 113.868 30.365C112.513 28.678 111.836 26.695 111.836 24.417C111.836 22.73 112.232 21.169 113.025 19.733C113.818 18.288 114.918 17.173 116.323 16.39C117.739 15.597 119.28 15.2 120.946 15.2C122.562 15.2 124.048 15.582 125.403 16.345C126.746 17.085 127.845 18.1996 128.566 19.553C129.314 20.9083 129.702 22.4322 129.695 23.98C129.695 24.743 129.61 25.51 129.439 26.284ZM125.494 22.971C125.243 21.676 124.706 20.687 123.882 20.004C123.059 19.312 122.04 18.965 120.826 18.965C119.922 18.965 119.129 19.166 118.446 19.568C117.761 19.9719 117.182 20.5347 116.76 21.209C116.469 21.671 116.228 22.259 116.037 22.971H125.494Z" fill="black"/>
</g>
<defs>
<linearGradient id="paint0_linear_1_2" x1="-1.5" y1="38.749" x2="33.805" y2="0.926999" gradientUnits="userSpaceOnUse">
<stop offset="0.05" stop-color="white"/>
<stop offset="0.38" stop-color="#A7B3FF"/>
<stop offset="1" stop-color="#74A4FF"/>
</linearGradient>
<clipPath id="clip0_1_2">
<rect width="131" height="43" fill="white"/>
</clipPath>
</defs>
</svg>
